<?xml version="1.0" encoding="UTF-8" standalone="no"?>
<!-- Created with Inkscape (http://www.inkscape.org/) -->

<svg
   version="1.1"
   id="svg2"
   xml:space="preserve"
   width="666.66663"
   height="666.66663"
   viewBox="0 0 666.66663 666.66663"
   sodipodi:docname="33c7f8f7e57af4077efea75cae923493.eps"
   xmlns:inkscape="http://www.inkscape.org/namespaces/inkscape"
   xmlns:sodipodi="http://sodipodi.sourceforge.net/DTD/sodipodi-0.dtd"
   xmlns="http://www.w3.org/2000/svg"
   xmlns:svg="http://www.w3.org/2000/svg"><defs
     id="defs6" /><sodipodi:namedview
     id="namedview4"
     pagecolor="#ffffff"
     bordercolor="#666666"
     borderopacity="1.0"
     inkscape:pageshadow="2"
     inkscape:pageopacity="0.0"
     inkscape:pagecheckerboard="0" /><g
     id="g8"
     inkscape:groupmode="layer"
     inkscape:label="ink_ext_XXXXXX"
     transform="matrix(1.3333333,0,0,-1.3333333,0,666.66665)"><g
       id="g10"
       transform="scale(0.1)"><path
         d="M 0,0 H 5000 V 5000 H 0 Z"
         style="fill:#FFF6ED;fill-opacity:1;fill-rule:nonzero;stroke:none"
         id="path12" /><path
         d="m 4066.79,1508.81 c 323.49,327.48 468.27,816.39 393.5,1301.33 -17.23,111.76 -45.72,221.8 -85.48,327.68 -54.07,144.03 -126.61,281.21 -215.79,406.59 -53.93,75.82 -113.48,147.66 -178.11,214.6 -341.55,353.77 -811.36,571.02 -1297.29,646.37 -518.63,80.41 -1077.46,-3.58 -1503.1,-310.62 C 893.5,3887.71 677.168,3584.46 574.785,3245.69 419.469,2731.76 542.715,2137.68 905.68,1742.06 c 242.18,-263.95 574.56,-433.24 920.46,-526.42 377.99,-101.81 780.55,-163.11 1172.51,-134.81 378.5,27.32 794.8,151.29 1068.14,427.98"
         style="fill:#c5ecf7;fill-opacity:1;fill-rule:nonzero;stroke:none"
         id="path14" /><path
         d="m 943.844,1801.79 c 32.211,0.45 65.326,1.07 95.116,13.34 29.79,12.26 55.9,39.05 57.52,71.22 1.81,35.87 -28.9,68.2 -64.12,75.2 -35.215,7 -72.184,-7.53 -99.192,-31.19 -14.484,37.35 -67.77,52.66 -99.867,28.68 -10.774,62.68 -70.348,113.28 -133.946,113.76 -63.597,0.49 -123.941,-49.19 -135.671,-111.7 -40.129,20.28 -94.868,3.43 -116.653,-35.89 -31.496,28.85 -92.285,7.09 -98.32,-35.19 -23.867,8.2 -48.746,15.82 -73.891,13.66 -52.824,-4.53 -86.398,-67.04 -38.593,-102.31 40.027,-29.53 146.101,-7.4 191.527,-6.77 172.031,2.4 344.059,4.79 516.09,7.19"
         style="fill:#c5ecf7;fill-opacity:1;fill-rule:nonzero;stroke:none"
         id="path16" /><path
         d="m 3800.99,3406.1 c 32.21,0.45 65.32,1.07 95.11,13.33 29.79,12.27 55.91,39.06 57.52,71.23 1.81,35.86 -28.89,68.2 -64.11,75.2 -35.22,7.01 -72.2,-7.53 -99.2,-31.19 -14.48,37.35 -67.76,52.65 -99.86,28.68 -10.78,62.68 -70.35,113.28 -133.96,113.76 -63.59,0.49 -123.93,-49.19 -135.67,-111.7 -40.12,20.27 -94.85,3.43 -116.65,-35.89 -31.49,28.85 -92.29,7.1 -98.31,-35.19 -23.88,8.2 -48.75,15.81 -73.9,13.66 -52.82,-4.53 -86.39,-67.04 -38.59,-102.31 40.03,-29.54 146.1,-7.4 191.53,-6.77 172.02,2.39 344.06,4.79 516.09,7.19"
         style="fill:#ffffff;fill-opacity:1;fill-rule:nonzero;stroke:none"
         id="path18" /><path
         d="m 1377.04,3794.91 c 19.04,0.27 38.61,0.64 56.22,7.89 17.61,7.25 33.05,23.08 34.01,42.1 1.06,21.2 -17.08,40.31 -37.9,44.45 -20.82,4.14 -42.67,-4.45 -58.64,-18.44 -8.56,22.08 -40.05,31.13 -59.03,16.95 -6.36,37.05 -41.58,66.96 -79.17,67.25 -37.59,0.29 -73.26,-29.08 -80.2,-66.03 -23.71,11.98 -56.07,2.03 -68.95,-21.21 -18.61,17.05 -54.55,4.19 -58.11,-20.8 -14.11,4.84 -28.817,9.35 -43.676,8.07 -31.223,-2.68 -51.071,-39.63 -22.817,-60.47 23.661,-17.46 86.363,-4.38 113.213,-4.01 101.68,1.42 203.37,2.84 305.05,4.25"
         style="fill:#ffffff;fill-opacity:1;fill-rule:nonzero;stroke:none"
         id="path20" /><path
         d="m 2317.98,3374.14 -14.27,2.45 -1.73,-10.07 14.27,-2.45"
         style="fill:#1e3453;fill-opacity:1;fill-rule:nonzero;stroke:none"
         id="path22" /><path
         d="m 2275.55,3381.42 -28.17,4.83 -1.72,-10.07 28.16,-4.83 z m -56.33,9.66 -28.16,4.84 -1.73,-10.07 28.16,-4.83 z m -56.32,9.67 -28.17,4.83 -1.72,-10.07 28.16,-4.83 z m -56.33,9.66 -28.16,4.84 -1.73,-10.07 28.16,-4.84 z m -56.32,9.67 -28.17,4.83 -1.72,-10.07 28.16,-4.83 z m -56.33,9.66 -28.16,4.83 -1.73,-10.07 28.16,-4.83 z m -56.32,9.67 -28.17,4.83 -1.72,-10.07 28.16,-4.83 z m -56.33,9.66 -28.16,4.83 -1.73,-10.07 28.16,-4.83 z m -56.33,9.66 -28.16,4.84 -1.73,-10.07 28.17,-4.84 z"
         style="fill:#1e3453;fill-opacity:1;fill-rule:nonzero;stroke:none"
         id="path24" /><path
         d="m 1768.62,3468.4 -18.59,3.19 -5.97,-17.9 9.7,-3.23 3.19,9.58 9.94,-1.71 1.73,10.07"
         style="fill:#1e3453;fill-opacity:1;fill-rule:nonzero;stroke:none"
         id="path26" /><path
         d="m 1734.81,3425.87 -9.26,-27.82 9.69,-3.22 9.26,27.81 z m -18.52,-55.63 -9.26,-27.82 9.69,-3.23 9.26,27.82 z m -18.52,-55.64 -9.26,-27.81 9.69,-3.23 9.26,27.82 z m -18.52,-55.63 -9.26,-27.82 9.69,-3.22 9.26,27.81 z m -18.52,-55.63 -9.26,-27.82 9.69,-3.23 9.26,27.82 z m -18.52,-55.64 -9.26,-27.81 9.69,-3.23 9.26,27.82 z m -18.52,-55.63 -9.26,-27.82 9.7,-3.22 9.26,27.81 z m -18.52,-55.63 -9.26,-27.82 9.7,-3.23 9.26,27.82 z m -18.52,-55.64 -9.25,-27.81 9.69,-3.23 9.26,27.82 z m -18.51,-55.63 -9.26,-27.82 9.69,-3.22 9.26,27.81 z m -18.52,-55.63 -9.26,-27.82 9.69,-3.23 9.26,27.82 z m -18.52,-55.64 -9.26,-27.81 9.69,-3.23 9.26,27.82 z m -18.52,-55.63 -9.26,-27.82 9.69,-3.22 9.26,27.81 z"
         style="fill:#1e3453;fill-opacity:1;fill-rule:nonzero;stroke:none"
         id="path28" /><path
         d="m 1494.06,2702.64 -6.46,-19.41 20.18,-3.35 1.67,10.08 -8.38,1.39 2.68,8.06 -9.69,3.23"
         style="fill:#1e3453;fill-opacity:1;fill-rule:nonzero;stroke:none"
         id="path30" /><path
         d="m 1530.29,2676.15 22.5,-3.73 1.67,10.08 -22.5,3.73 z m 45.01,-7.46 22.5,-3.73 1.67,10.08 -22.5,3.73"
         style="fill:#1e3453;fill-opacity:1;fill-rule:nonzero;stroke:none"
         id="path32" /><path
         d="m 1620.31,2661.23 14.28,-2.37 1.67,10.08 -14.28,2.37"
         style="fill:#1e3453;fill-opacity:1;fill-rule:nonzero;stroke:none"
         id="path34" /><path
         d="m 2491.54,3291.28 14.28,-2.37 1.68,10.08 -14.29,2.37"
         style="fill:#1e3453;fill-opacity:1;fill-rule:nonzero;stroke:none"
         id="path36" /><path
         d="m 2534.48,3284.17 28.65,-4.75 1.67,10.07 -28.65,4.75 z m 57.31,-9.5 28.65,-4.75 1.67,10.07 -28.65,4.75 z m 57.3,-9.5 28.66,-4.75 1.67,10.08 -28.66,4.74 z m 57.31,-9.5 28.66,-4.75 1.67,10.08 -28.66,4.75 z m 57.31,-9.5 28.65,-4.75 1.67,10.08 -28.65,4.75 z m 57.31,-9.5 28.65,-4.75 1.67,10.08 -28.65,4.75 z m 57.31,-9.5 28.65,-4.75 1.67,10.08 -28.65,4.75 z m 57.3,-9.5 28.66,-4.75 1.67,10.08 -28.66,4.75 z m 57.31,-9.5 28.66,-4.75 1.67,10.08 -28.66,4.75 z m 57.31,-9.5 28.65,-4.75 1.67,10.08 -28.65,4.75 z m 57.31,-9.5 28.65,-4.75 1.67,10.08 -28.65,4.75 z m 57.31,-9.49 28.65,-4.75 1.67,10.07 -28.65,4.75 z m 57.3,-9.5 28.66,-4.75 1.67,10.07 -28.65,4.75 z m 57.31,-9.5 28.66,-4.75 1.67,10.08 -28.66,4.74 z m 57.31,-9.5 28.66,-4.75 1.67,10.08 -28.66,4.75 z m 57.31,-9.5 28.65,-4.75 1.67,10.08 -28.65,4.75 z m 57.31,-9.5 28.65,-4.75 1.67,10.08 -28.65,4.75 z m 57.31,-9.5 28.65,-4.75 1.67,10.08 -28.65,4.75 z m 57.3,-9.5 28.66,-4.75 1.67,10.08 -28.66,4.75 z m 57.31,-9.5 28.66,-4.75 1.67,10.08 -28.66,4.75 z m 57.31,-9.5 28.65,-4.75 1.67,10.08 -28.65,4.75 z m 57.31,-9.5 28.65,-4.75 1.67,10.08 -28.65,4.75 z m 57.31,-9.49 28.65,-4.75 1.67,10.07 -28.65,4.75 z m 57.3,-9.5 28.66,-4.75 1.67,10.07 -28.66,4.75 z m 57.31,-9.5 28.66,-4.75 1.67,10.08 -28.66,4.74 z m 57.31,-9.5 28.65,-4.75 1.67,10.08 -28.65,4.75 z m 57.31,-9.5 28.65,-4.75 1.67,10.08 -28.65,4.75 z m 57.31,-9.5 28.65,-4.75 1.67,10.08 -28.65,4.75 z m 57.3,-9.5 28.66,-4.75 1.67,10.08 -28.66,4.75 z m 57.31,-9.5 28.66,-4.75 1.67,10.08 -28.66,4.75 z m 57.31,-9.5 28.65,-4.75 1.67,10.08 -28.65,4.75 z m 57.31,-9.5 28.65,-4.75 1.67,10.08 -28.65,4.75 z m 57.31,-9.5 28.65,-4.75 1.67,10.08 -28.65,4.75 z m 57.3,-9.49 28.66,-4.75 1.67,10.07 -28.66,4.75 z m 57.31,-9.5 28.66,-4.75 1.67,10.07 -28.66,4.75 z m 57.31,-9.5 28.65,-4.75 1.67,10.08 -28.65,4.75 z m 57.31,-9.5 28.65,-4.75 1.67,10.08 -28.65,4.75 z"
         style="fill:#1e3453;fill-opacity:1;fill-rule:nonzero;stroke:none"
         id="path38" /><path
         d="m 4654.88,2932.7 8.41,-1.39 -2.66,-8.11 9.71,-3.18 6.37,19.42 -20.16,3.34 -1.67,-10.08"
         style="fill:#1e3453;fill-opacity:1;fill-rule:nonzero;stroke:none"
         id="path40" /><path
         d="m 4651.49,2895.3 -9.14,-27.91 9.71,-3.18 9.14,27.91 z m -18.28,-55.81 -9.15,-27.91 9.71,-3.18 9.14,27.91 z m -18.29,-55.81 -9.15,-27.91 9.71,-3.18 9.15,27.91 z m -18.29,-55.81 -9.14,-27.9 9.7,-3.19 9.15,27.91 z m -18.29,-55.81 -9.14,-27.9 9.71,-3.18 9.14,27.9 z m -18.29,-55.81 -9.14,-27.9 9.71,-3.18 9.14,27.9 z m -18.28,-55.81 -9.15,-27.9 9.71,-3.18 9.14,27.9 z m -18.29,-55.81 -9.14,-27.9 9.7,-3.18 9.15,27.9"
         style="fill:#1e3453;fill-opacity:1;fill-rule:nonzero;stroke:none"
         id="path42" /><path
         d="m 4505.2,2448.83 -4.52,-13.76 9.71,-3.18 4.51,13.75"
         style="fill:#1e3453;fill-opacity:1;fill-rule:nonzero;stroke:none"
         id="path44" /><path
         d="m 2314.14,2604.05 14.28,-2.37 1.67,10.08 -14.28,2.37"
         style="fill:#1e3453;fill-opacity:1;fill-rule:nonzero;stroke:none"
         id="path46" /><path
         d="m 2352.08,2597.76 23.66,-3.92 1.67,10.08 -23.66,3.92 z m 47.31,-7.84 23.66,-3.92 1.67,10.08 -23.66,3.92"
         style="fill:#1e3453;fill-opacity:1;fill-rule:nonzero;stroke:none"
         id="path48" /><path
         d="m 2446.71,2582.08 18.59,-3.08 5.95,17.87 -9.69,3.23 -3.2,-9.6 -9.98,1.66 -1.67,-10.08"
         style="fill:#1e3453;fill-opacity:1;fill-rule:nonzero;stroke:none"
         id="path50" /><path
         d="m 2480.02,2623.24 8.78,26.37 -9.69,3.22 -8.78,-26.36 z m 17.56,52.73 8.77,26.37 -9.69,3.22 -8.78,-26.36 z m 17.55,52.73 8.78,26.37 -9.7,3.22 -8.77,-26.36 z"
         style="fill:#1e3453;fill-opacity:1;fill-rule:nonzero;stroke:none"
         id="path52" /><path
         d="m 2532.68,2781.43 3.2,9.6 9.97,-1.65 1.68,10.07 -18.58,3.08 -5.96,-17.87 9.69,-3.23"
         style="fill:#1e3453;fill-opacity:1;fill-rule:nonzero;stroke:none"
         id="path54" /><path
         d="m 2575.11,2784.52 29.25,-4.85 1.67,10.08 -29.25,4.85 z m 58.51,-9.7 29.25,-4.85 1.67,10.08 -29.25,4.85 z m 58.5,-9.7 29.25,-4.85 1.67,10.08 -29.25,4.85 z m 58.5,-9.7 29.25,-4.84 1.67,10.07 -29.25,4.85 z m 58.51,-9.69 29.25,-4.85 1.67,10.07 -29.25,4.85 z m 58.5,-9.7 29.25,-4.85 1.67,10.07 -29.25,4.85 z m 58.5,-9.7 29.25,-4.85 1.68,10.08 -29.26,4.85 z m 58.51,-9.7 29.25,-4.85 1.67,10.08 -29.25,4.85 z m 58.5,-9.7 29.25,-4.85 1.67,10.08 -29.25,4.85 z m 58.5,-9.7 29.25,-4.85 1.68,10.08 -29.26,4.85 z m 58.51,-9.7 29.25,-4.85 1.67,10.08 -29.25,4.85 z m 58.5,-9.7 29.25,-4.85 1.67,10.08 -29.25,4.85 z m 58.5,-9.7 29.26,-4.85 1.67,10.08 -29.26,4.85 z m 58.51,-9.7 29.25,-4.85 1.67,10.08 -29.25,4.85 z m 58.5,-9.69 29.25,-4.85 1.67,10.07 -29.25,4.85 z m 58.5,-9.7 29.26,-4.85 1.67,10.07 -29.26,4.85 z m 58.51,-9.7 29.25,-4.85 1.67,10.08 -29.25,4.85 z m 58.5,-9.7 29.25,-4.85 1.67,10.08 -29.25,4.85 z m 58.5,-9.7 29.26,-4.85 1.67,10.08 -29.26,4.85 z"
         style="fill:#1e3453;fill-opacity:1;fill-rule:nonzero;stroke:none"
         id="path56" /><path
         d="m 3686.67,2600.24 14.29,-2.36 1.67,10.07 -14.29,2.37"
         style="fill:#1e3453;fill-opacity:1;fill-rule:nonzero;stroke:none"
         id="path58" /><path
         d="m 1150.2,1902.66 4.58,13.74 -9.69,3.23 -4.58,-13.74"
         style="fill:#1e3453;fill-opacity:1;fill-rule:nonzero;stroke:none"
         id="path60" /><path
         d="m 1166.88,1952.76 3.2,9.6 9.98,-1.66 1.67,10.08 -18.59,3.09 -5.95,-17.88 9.69,-3.23"
         style="fill:#1e3453;fill-opacity:1;fill-rule:nonzero;stroke:none"
         id="path62" /><path
         d="m 1208.6,1955.98 28.55,-4.73 1.67,10.07 -28.55,4.73 z m 57.09,-9.47 28.55,-4.73 1.67,10.08 -28.55,4.73 z m 57.09,-9.46 28.55,-4.73 1.67,10.08 -28.55,4.73 z m 57.09,-9.46 28.55,-4.73 1.67,10.07 -28.55,4.74 z m 57.09,-9.47 28.55,-4.73 1.67,10.08 -28.55,4.73 z m 57.09,-9.46 28.54,-4.73 1.67,10.08 -28.54,4.73 z m 57.09,-9.46 28.54,-4.73 1.67,10.07 -28.54,4.74 z m 57.09,-9.47 28.54,-4.73 1.67,10.08 -28.54,4.73 z m 57.09,-9.46 28.54,-4.73 1.67,10.08 -28.54,4.73 z"
         style="fill:#1e3453;fill-opacity:1;fill-rule:nonzero;stroke:none"
         id="path64" /><path
         d="m 1722.41,1870.81 14.28,-2.36 1.67,10.08 -14.28,2.36"
         style="fill:#1e3453;fill-opacity:1;fill-rule:nonzero;stroke:none"
         id="path66" /><path
         d="m 3739.56,2342.94 c -37.47,-0.96 -39.01,57.27 -1.49,58.22 37.46,0.96 39.01,-57.26 1.49,-58.22"
         style="fill:#ffffff;fill-opacity:1;fill-rule:nonzero;stroke:none"
         id="path68" /><path
         d="m 2490.62,3138.63 c -37.46,-0.95 -39,57.26 -1.48,58.22 37.46,0.95 39,-57.26 1.48,-58.22"
         style="fill:#3e2a6c;fill-opacity:1;fill-rule:nonzero;stroke:none"
         id="path70" /><path
         d="m 1500.45,2163.36 c -18.73,-0.48 -19.5,28.63 -0.74,29.11 18.73,0.48 19.5,-28.63 0.74,-29.11"
         style="fill:#3e2a6c;fill-opacity:1;fill-rule:nonzero;stroke:none"
         id="path72" /><path
         d="m 2924.82,2942.28 c -18.73,-0.48 -19.5,28.63 -0.74,29.11 18.73,0.48 19.5,-28.63 0.74,-29.11"
         style="fill:#3e2a6c;fill-opacity:1;fill-rule:nonzero;stroke:none"
         id="path74" /><path
         d="m 4125.44,1410.99 c -18.73,-0.48 -19.5,28.63 -0.74,29.11 18.73,0.48 19.5,-28.64 0.74,-29.11"
         style="fill:#3e2a6c;fill-opacity:1;fill-rule:nonzero;stroke:none"
         id="path76" /><path
         d="m 1423.96,2807.84 c -18.73,-0.48 -19.5,28.63 -0.74,29.11 18.73,0.48 19.51,-28.63 0.74,-29.11"
         style="fill:#ffffff;fill-opacity:1;fill-rule:nonzero;stroke:none"
         id="path78" /><path
         d="m 683.168,1863.31 c -18.73,-0.48 -19.508,28.63 -0.742,29.11 18.73,0.48 19.504,-28.63 0.742,-29.11"
         style="fill:#ffffff;fill-opacity:1;fill-rule:nonzero;stroke:none"
         id="path80" /><path
         d="m 3905.57,2554.72 c -18.73,-0.48 -19.51,28.63 -0.75,29.11 18.73,0.48 19.51,-28.63 0.75,-29.11"
         style="fill:#f03f57;fill-opacity:1;fill-rule:nonzero;stroke:none"
         id="path82" /><path
         d="m 1885.42,3629.18 c -18.74,-0.47 -19.51,28.64 -0.75,29.12 18.73,0.47 19.5,-28.64 0.75,-29.12"
         style="fill:#f03f57;fill-opacity:1;fill-rule:nonzero;stroke:none"
         id="path84" /><path
         d="m 1804.09,3535.34 c -18.73,-0.48 -19.51,28.63 -0.75,29.11 18.74,0.48 19.51,-28.63 0.75,-29.11"
         style="fill:#f03f57;fill-opacity:1;fill-rule:nonzero;stroke:none"
         id="path86" /><path
         d="m 3579.01,799.422 c -18.73,-0.473 -19.5,28.629 -0.74,29.109 18.73,0.469 19.51,-28.633 0.74,-29.109"
         style="fill:#f03f57;fill-opacity:1;fill-rule:nonzero;stroke:none"
         id="path88" /><path
         d="m 2907.9,3071.29 c -18.73,-0.48 -19.5,28.63 -0.74,29.11 18.73,0.48 19.51,-28.63 0.74,-29.11"
         style="fill:#f03f57;fill-opacity:1;fill-rule:nonzero;stroke:none"
         id="path90" /><path
         d="m 1400.47,2077.18 c -18.73,-0.47 -19.51,28.63 -0.75,29.11 18.73,0.48 19.51,-28.63 0.75,-29.11"
         style="fill:#f03f57;fill-opacity:1;fill-rule:nonzero;stroke:none"
         id="path92" /><path
         d="m 3889.35,2921.57 c -18.73,-0.48 -19.51,28.63 -0.75,29.11 18.73,0.48 19.52,-28.63 0.75,-29.11"
         style="fill:#f03f57;fill-opacity:1;fill-rule:nonzero;stroke:none"
         id="path94" /><path
         d="m 854.082,2131.36 c -18.73,-0.48 -19.504,28.63 -0.742,29.11 18.73,0.48 19.508,-28.63 0.742,-29.11"
         style="fill:#f03f57;fill-opacity:1;fill-rule:nonzero;stroke:none"
         id="path96" /><path
         d="m 3316.16,688.641 c -18.73,-0.481 -19.51,28.64 -0.74,29.109 18.73,0.48 19.5,-28.629 0.74,-29.109"
         style="fill:#f03f57;fill-opacity:1;fill-rule:nonzero;stroke:none"
         id="path98" /><path
         d="m 1587.17,3208.78 c -18.72,-0.48 -19.5,28.63 -0.74,29.11 18.73,0.47 19.51,-28.63 0.74,-29.11"
         style="fill:#ffffff;fill-opacity:1;fill-rule:nonzero;stroke:none"
         id="path100" /><path
         d="m 1429.39,2044.03 c -18.73,-0.48 -19.5,28.64 -0.74,29.11 18.73,0.48 19.5,-28.63 0.74,-29.11"
         style="fill:#ffffff;fill-opacity:1;fill-rule:nonzero;stroke:none"
         id="path102" /><path
         d="m 2284.61,2305.8 c -18.72,-0.48 -19.5,28.63 -0.74,29.11 18.73,0.48 19.51,-28.63 0.74,-29.11"
         style="fill:#ffffff;fill-opacity:1;fill-rule:nonzero;stroke:none"
         id="path104" /><path
         d="m 2401.46,1693.98 c -18.73,-0.47 -19.5,28.64 -0.74,29.12 18.73,0.47 19.5,-28.64 0.74,-29.12"
         style="fill:#ffffff;fill-opacity:1;fill-rule:nonzero;stroke:none"
         id="path106" /><path
         d="m 1478.31,678.691 c -18.73,-0.48 -19.5,28.629 -0.74,29.11 18.73,0.48 19.51,-28.629 0.74,-29.11"
         style="fill:#ffffff;fill-opacity:1;fill-rule:nonzero;stroke:none"
         id="path108" /><path
         d="m 4397.34,1093.86 c -0.04,1.29 -0.06,2.59 -0.09,3.87 -0.39,15.24 12.62,30.16 28.36,29.86 15.79,-0.3 29.44,-12.04 29.85,-28.36 0.04,-1.3 0.07,-2.59 0.1,-3.89 0.39,-15.22 -12.63,-30.15 -28.36,-29.85 -15.79,0.3 -29.45,12.05 -29.86,28.37"
         style="fill:#3e2a6c;fill-opacity:1;fill-rule:nonzero;stroke:none"
         id="path110" /><path
         d="m 622.961,1311.16 c -21.059,-0.54 -21.93,32.18 -0.836,32.72 21.055,0.53 21.922,-32.18 0.836,-32.72"
         style="fill:#3e2a6c;fill-opacity:1;fill-rule:nonzero;stroke:none"
         id="path112" /><path
         d="m 892.344,1966.96 c -37.461,-0.95 -39.008,57.26 -1.489,58.22 37.461,0.95 39.008,-57.26 1.489,-58.22"
         style="fill:#3e2a6c;fill-opacity:1;fill-rule:nonzero;stroke:none"
         id="path114" /><path
         d="m 2127.49,2949.72 c -37.47,-0.96 -39.01,57.26 -1.49,58.22 37.46,0.96 39.01,-57.26 1.49,-58.22"
         style="fill:#3e2a6c;fill-opacity:1;fill-rule:nonzero;stroke:none"
         id="path116" /><path
         d="m 3884.79,1402.53 c -37.46,-0.96 -39.01,57.26 -1.48,58.21 37.46,0.96 39,-57.25 1.48,-58.21"
         style="fill:#ffffff;fill-opacity:1;fill-rule:nonzero;stroke:none"
         id="path118" /><path
         d="m 2391.72,1541.98 c -37.46,-0.95 -39.01,57.26 -1.49,58.22 37.47,0.95 39.01,-57.26 1.49,-58.22"
         style="fill:#ffffff;fill-opacity:1;fill-rule:nonzero;stroke:none"
         id="path120" /><path
         d="m 624.313,2926.14 314.414,-328.81 3.574,-140.12 z"
         style="fill:#332860;fill-opacity:1;fill-rule:nonzero;stroke:none"
         id="path122" /><path
         d="m 942.301,2457.21 5.992,142.55 -22.359,-4.31 z"
         style="fill:#252047;fill-opacity:1;fill-rule:nonzero;stroke:none"
         id="path124" /><path
         d="m 624.313,2926.14 42.312,-432.39 272.102,103.58 z"
         style="fill:#3e2a6c;fill-opacity:1;fill-rule:nonzero;stroke:none"
         id="path126" /><path
         d="M 624.313,2926.14 1178.04,2648.92 938.727,2597.33 Z"
         style="fill:#433179;fill-opacity:1;fill-rule:nonzero;stroke:none"
         id="path128" /><path
         d="m 956.227,2411.22 c 0.921,-4.91 2.117,-9.76 3.578,-14.52 l 8.304,2.55 c -1.367,4.45 -2.484,8.98 -3.339,13.57 l -8.543,-1.6"
         style="fill:#1e3453;fill-opacity:1;fill-rule:nonzero;stroke:none"
         id="path130" /><path
         d="m 971.895,2368.66 c 4.996,-8.85 10.91,-17.19 17.582,-24.89 l 6.566,5.69 c -6.305,7.27 -11.883,15.14 -16.582,23.47 z m 39.635,-45.87 c 8,-6.27 16.61,-11.78 25.66,-16.39 l 3.94,7.74 c -8.54,4.35 -16.67,9.56 -24.24,15.49 z m 54,-27.49 c 9.77,-2.79 19.76,-4.68 29.85,-5.7 l 0.87,8.64 c -9.59,0.98 -19.08,2.77 -28.33,5.41 z m 60.18,-6.24 c 10.08,0.65 20.12,2.11 29.99,4.34 l -1.91,8.47 c -9.43,-2.12 -19.02,-3.52 -28.64,-4.14 z m 58.94,13.29 c 2.96,1.17 5.88,2.42 8.78,3.74 6.25,2.84 12.5,6.17 18.41,10.03 l -4.76,7.27 c -5.46,-3.58 -11.33,-6.7 -17.25,-9.4 -2.77,-1.26 -5.56,-2.45 -8.39,-3.57 z m 50.04,34.81 c 3.68,5.06 6.65,10.68 8.62,16.84 1.35,4.25 2.11,8.58 2.34,12.9 l -8.68,0.46 c -0.19,-3.61 -0.82,-7.2 -1.94,-10.72 -1.66,-5.2 -4.17,-9.97 -7.37,-14.38 z m 3.83,60.52 c -4.88,9.28 -11.96,17.5 -20.49,23.75 l -5.13,-7.01 c 7.44,-5.45 13.68,-12.7 17.93,-20.78 z m -49.62,35.58 c -3.5,0.51 -7.01,0.76 -10.52,0.76 -6.95,0 -13.87,-0.96 -20.6,-2.74 l 2.22,-8.4 c 6.05,1.6 12.23,2.45 18.38,2.45 3.1,0 6.2,-0.22 9.27,-0.66 z m -59.28,-14.86 c -7.18,-4.84 -13.71,-10.63 -19.31,-17.18 -1.11,-1.3 -2.18,-2.63 -3.22,-3.97 l 6.87,-5.32 c 0.96,1.24 1.94,2.46 2.96,3.65 5.06,5.93 11.02,11.21 17.56,15.62 z m -37.88,-47.73 c -3.94,-9.37 -6.79,-19.21 -8.71,-29.23 l 8.53,-1.64 c 1.82,9.49 4.51,18.76 8.19,27.51 z m -11.84,-59.42 c -0.03,-1.34 -0.04,-2.68 -0.04,-4.03 0,-8.76 0.62,-17.63 2.14,-26.34 l 8.56,1.49 c -1.42,8.12 -2.02,16.5 -2.02,24.85 0,1.29 0.02,2.57 0.04,3.85 z m 11.46,-59.72 c 1.03,-2.05 2.13,-4.07 3.32,-6.06 4.22,-7.04 9.32,-13.3 15.07,-18.86 l 6.04,6.25 c -5.25,5.07 -9.86,10.74 -13.66,17.08 -1.07,1.78 -2.06,3.61 -2.99,5.47 z m 43.25,-42.95 c 8.87,-4.86 18.33,-8.77 28,-11.91 l 2.68,8.27 c -9.24,2.99 -18.2,6.71 -26.5,11.26 z m 57.34,-19.14 c 9.88,-1.78 19.85,-3.04 29.85,-3.78 l 0.65,8.66 c -9.71,0.72 -19.38,1.94 -28.96,3.67 z m 59.93,-4.47 c 10.02,0.27 20.04,1.06 29.98,2.34 l -1.11,8.62 c -9.66,-1.25 -19.38,-2.01 -29.11,-2.28 z m 59.58,7.68 c 9.77,2.27 19.43,5.04 28.91,8.29 l -2.81,8.22 c -9.21,-3.16 -18.58,-5.84 -28.07,-8.05 l 1.97,-8.46"
         style="fill:#1e3453;fill-opacity:1;fill-rule:nonzero;stroke:none"
         id="path132" /><path
         d="m 1368.93,2212.43 c 4.44,2.07 8.83,4.25 13.16,6.54 l -4.06,7.68 c -4.2,-2.22 -8.47,-4.34 -12.78,-6.35 l 3.68,-7.87"
         style="fill:#1e3453;fill-opacity:1;fill-rule:nonzero;stroke:none"
         id="path134" /><path
         d="m 3834.46,3556.6 2.33,-91.17 460.31,228.04 z"
         style="fill:#27214c;fill-opacity:1;fill-rule:nonzero;stroke:none"
         id="path136" /><path
         d="m 4362.27,3721.35 -530.16,-164.13 264.57,-82.76 z"
         style="fill:#3e2a6c;fill-opacity:1;fill-rule:nonzero;stroke:none"
         id="path138" /><path
         d="m 4362.27,3721.35 -723.92,-114.26 196.11,-50.49 z"
         style="fill:#433179;fill-opacity:1;fill-rule:nonzero;stroke:none"
         id="path140" /><path
         d="m 3802.24,3453.92 c -3.51,-3.23 -7.08,-6.41 -10.71,-9.51 l 5.65,-6.6 c 3.71,3.17 7.37,6.42 10.95,9.73 l -5.89,6.38"
         style="fill:#1e3453;fill-opacity:1;fill-rule:nonzero;stroke:none"
         id="path142" /><path
         d="m 3768.98,3426.59 c -7.74,-5.65 -15.69,-11.01 -23.83,-16.07 l 4.59,-7.38 c 8.32,5.18 16.45,10.66 24.36,16.44 z m -48.79,-30.34 c -8.48,-4.45 -17.14,-8.59 -25.93,-12.42 l 3.47,-7.97 c 8.98,3.91 17.82,8.15 26.5,12.7 z m -52.69,-22.95 c -9.04,-3.18 -18.2,-6.05 -27.45,-8.58 l 2.3,-8.38 c 9.44,2.59 18.8,5.51 28.04,8.77 z m -55.44,-15.17 c -9.4,-1.86 -18.87,-3.38 -28.39,-4.55 l 1.07,-8.62 c 9.72,1.19 19.4,2.75 29.01,4.65 z m -57.03,-7.01 c -6.21,-0.3 -12.42,-0.46 -18.63,-0.46 -3.37,0 -6.74,0.05 -10.11,0.14 l -0.23,-8.68 c 3.45,-0.1 6.89,-0.14 10.34,-0.14 6.35,0 12.71,0.15 19.05,0.46 z m -57.41,1.55 -0.18,0.01 c -9.42,0.99 -18.86,2.35 -28.19,4.17 l -1.67,-8.52 c 9.62,-1.88 19.31,-3.28 28.96,-4.29 l 0.18,-0.01 z m -56.08,11.15 c -9.11,2.87 -17.99,6.29 -26.51,10.34 l -3.73,-7.84 c 8.92,-4.25 18.18,-7.81 27.63,-10.78 z m -50.97,24.56 c -2.41,1.69 -4.76,3.45 -7.07,5.28 -4.97,3.96 -9.73,8.4 -13.84,13.22 l -6.61,-5.64 c 4.55,-5.33 9.71,-10.13 15.05,-14.38 2.44,-1.94 4.93,-3.8 7.46,-5.58 z m -33.7,42.03 c -0.64,2.63 -1.02,5.31 -1.12,8.05 l -0.03,1.46 c 0,5.63 1.18,11.08 3.26,16.39 l -8.09,3.17 c -2.41,-6.15 -3.86,-12.71 -3.86,-19.56 l 0.04,-1.78 c 0.12,-3.34 0.59,-6.61 1.35,-9.77 z m 16.94,48.98 c 2.96,3.36 6.12,6.58 9.34,9.64 3.56,3.37 7.31,6.65 11.22,9.78 l -5.42,6.78 c -4.11,-3.29 -8.04,-6.72 -11.77,-10.26 -3.38,-3.2 -6.72,-6.6 -9.89,-10.21 z m 44.07,35.14 c 8.39,4.57 17.12,8.23 25.92,10.63 l -2.29,8.38 c -9.55,-2.61 -18.88,-6.53 -27.78,-11.38 z m 53.27,13.71 c 7.28,-0.45 14.46,-1.99 21.46,-4.83 1.63,-0.66 3.2,-1.38 4.73,-2.15 l 3.93,7.75 c -1.74,0.88 -3.54,1.7 -5.39,2.45 -7.91,3.21 -16.04,4.95 -24.2,5.45 z m 47.01,-24.13 c 5.57,-7.04 9.84,-15.28 12.78,-24.24 l 8.26,2.72 c -3.23,9.81 -7.95,18.98 -14.23,26.91 z m 17.55,-51.58 c 0.05,-1.29 0.07,-2.57 0.07,-3.86 0,-8 -0.89,-16.07 -2.67,-23.89 l 8.47,-1.93 c 1.92,8.47 2.89,17.17 2.89,25.82 0,1.39 -0.03,2.78 -0.08,4.17 z m -12.39,-53.73 c -0.99,-1.8 -2.05,-3.57 -3.17,-5.29 -4,-6.18 -8.49,-11.91 -13.39,-17.26 l 6.4,-5.87 c 5.21,5.68 10,11.8 14.28,18.4 1.23,1.9 2.39,3.84 3.49,5.81 z m -37.55,-41.41 c -7.51,-5.62 -15.55,-10.68 -23.97,-15.26 l 4.15,-7.64 c 8.74,4.76 17.14,10.04 25.03,15.95 z m -49.82,-27.49 c -8.84,-3.64 -17.89,-6.9 -27,-9.86 l 2.69,-8.27 c 9.28,3.02 18.54,6.35 27.62,10.1 z m -54.68,-18.01 c -9.3,-2.51 -18.66,-4.86 -28.05,-7.03 l 1.96,-8.46 c 9.49,2.19 18.95,4.56 28.36,7.1 z m -56.33,-13.02 c -9.47,-1.82 -18.96,-3.47 -28.49,-4.95 l 1.33,-8.59 c 9.63,1.5 19.23,3.17 28.8,5.01 z m -57.14,-8.86 c -9.57,-1.13 -19.16,-2.08 -28.77,-2.86 l 0.7,-8.66 c 9.71,0.79 19.41,1.75 29.09,2.89 l -1.02,8.63"
         style="fill:#1e3453;fill-opacity:1;fill-rule:nonzero;stroke:none"
         id="path144" /><path
         d="m 3209.59,3285.32 c -4.8,-0.21 -9.6,-0.37 -14.39,-0.49 l 0.21,-8.68 c 4.85,0.11 9.7,0.28 14.55,0.49 l -0.37,8.68"
         style="fill:#1e3453;fill-opacity:1;fill-rule:nonzero;stroke:none"
         id="path146" /><path
         d="m 1785.83,1454.12 2081.55,-343.47 c 33,17.86 72.6,34.44 102.57,31.76 l 1.29,-48.89 L 2705.2,547.691 388.281,1117.43 1785.83,1454.12"
         style="fill:#a4a6a9;fill-opacity:1;fill-rule:nonzero;stroke:none"
         id="path148" /><path
         d="m 386.98,1166.33 1.301,-48.9 c 0,0 141.719,9.4 157.547,20.65 15.828,11.26 -158.848,28.25 -158.848,28.25"
         style="fill:#a4a6a9;fill-opacity:1;fill-rule:nonzero;stroke:none"
         id="path150" /><path
         d="m 1792.35,1486.94 2177.6,-344.53 c 6.91,-1.09 14.73,4.35 17.34,12.09 l 489.32,1445.6 c 2.63,7.74 -0.89,14.97 -7.81,16.07 L 2291.21,2960.7 c -6.93,1.09 -14.73,-4.35 -17.36,-12.1 L 1784.54,1503.01 c -2.63,-7.75 0.89,-14.97 7.81,-16.07"
         style="fill:#1e3453;fill-opacity:1;fill-rule:nonzero;stroke:none"
         id="path152" /><path
         d="M 1880.37,1555.98 3935.24,1230.86 4380.79,2547.13 2325.91,2872.25 1880.37,1555.98"
         style="fill:#6781c9;fill-opacity:1;fill-rule:nonzero;stroke:none"
         id="path154" /><path
         d="m 3935.24,1230.87 362.62,1071.28 c -220.72,-12.63 -441.23,-32.1 -660.22,-53.9 C 3099.56,2194.7 2558.46,2126.9 2032.4,2005.14 l -152.03,-449.16 2054.87,-325.11"
         style="fill:#7798d6;fill-opacity:1;fill-rule:nonzero;stroke:none"
         id="path156" /><path
         d="m 3995.64,1966.11 -3.33,-9.63 -10.06,1.6 -1.61,-10.09 18.53,-2.95 6.13,17.74 -9.66,3.33"
         style="fill:#ffffff;fill-opacity:1;fill-rule:nonzero;stroke:none"
         id="path158" /><path
         d="m 3952.83,1962.76 -29.4,4.68 -1.61,-10.09 29.41,-4.68 z m -58.81,9.35 -29.4,4.68 -1.61,-10.09 29.41,-4.67 z m -58.81,9.36 -29.4,4.68 -1.61,-10.09 29.41,-4.68 z m -58.81,9.35 -29.4,4.68 -1.61,-10.09 29.41,-4.67 z m -58.81,9.36 -29.4,4.68 -1.61,-10.09 29.41,-4.68 z m -58.81,9.35 -29.4,4.68 -1.61,-10.09 29.41,-4.67 z m -58.81,9.36 -29.41,4.68 -1.6,-10.09 29.4,-4.68 z"
         style="fill:#ffffff;fill-opacity:1;fill-rule:nonzero;stroke:none"
         id="path160" /><path
         d="m 3541.16,2028.24 -8.28,1.32 2.74,7.92 -9.66,3.34 -6.71,-19.44 20.31,-3.23 1.6,10.09"
         style="fill:#ffffff;fill-opacity:1;fill-rule:nonzero;stroke:none"
         id="path162" /><path
         d="m 3545.47,2066.02 9.85,28.53 -9.65,3.34 -9.85,-28.54 z m 19.71,57.07 9.85,28.54 -9.66,3.33 -9.85,-28.54 z m 19.7,57.07 9.85,28.54 -9.65,3.33 -9.85,-28.53 z m 19.71,57.07 9.85,28.54 -9.66,3.33 -9.85,-28.53 z m 19.7,57.07 9.85,28.54 -9.65,3.33 -9.85,-28.53 z m 19.71,57.08 9.85,28.53 -9.66,3.34 -9.85,-28.54 z m 19.7,57.07 9.85,28.53 -9.65,3.34 -9.86,-28.54 z"
         style="fill:#ffffff;fill-opacity:1;fill-rule:nonzero;stroke:none"
         id="path164" /><path
         d="m 3683.41,2465.52 3.33,9.63 10.07,-1.59 1.6,10.09 -18.53,2.93 -6.12,-17.72 9.65,-3.34"
         style="fill:#ffffff;fill-opacity:1;fill-rule:nonzero;stroke:none"
         id="path166" /><path
         d="m 3726.21,2468.88 29.4,-4.68 1.61,10.09 -29.41,4.68 z m 58.81,-9.35 29.4,-4.68 1.61,10.09 -29.41,4.67 z m 58.81,-9.36 29.4,-4.68 1.61,10.09 -29.41,4.68 z m 58.81,-9.36 29.41,-4.67 1.6,10.08 -29.41,4.68 z m 58.81,-9.35 29.41,-4.68 1.6,10.09 -29.4,4.68 z m 58.81,-9.36 29.41,-4.68 1.6,10.09 -29.4,4.68 z m 58.81,-9.36 29.41,-4.67 1.6,10.09 -29.4,4.67 z"
         style="fill:#ffffff;fill-opacity:1;fill-rule:nonzero;stroke:none"
         id="path168" /><path
         d="m 4137.88,2403.39 8.29,-1.32 -2.74,-7.92 9.66,-3.34 6.71,19.44 -20.32,3.23 -1.6,-10.09"
         style="fill:#ffffff;fill-opacity:1;fill-rule:nonzero;stroke:none"
         id="path170" /><path
         d="m 4133.58,2365.61 -9.85,-28.53 9.65,-3.34 9.86,28.54 z m -19.71,-57.07 -9.85,-28.53 9.66,-3.34 9.85,28.54 z m -19.7,-57.07 -9.86,-28.53 9.66,-3.34 9.85,28.54 z m -19.71,-57.07 -9.85,-28.54 9.65,-3.33 9.86,28.54 z m -19.7,-57.07 -9.86,-28.54 9.66,-3.33 9.85,28.53 z m -19.71,-57.07 -9.85,-28.54 9.65,-3.33 9.86,28.53 z m -19.71,-57.07 -9.85,-28.54 9.66,-3.33 9.85,28.53 z"
         style="fill:#ffffff;fill-opacity:1;fill-rule:nonzero;stroke:none"
         id="path172" /><path
         d="m 2586.3,1606.35 -3.33,-9.64 -10.07,1.6 -1.6,-10.09 18.53,-2.94 6.12,17.73 -9.65,3.34"
         style="fill:#ffffff;fill-opacity:1;fill-rule:nonzero;stroke:none"
         id="path174" /><path
         d="m 2543.5,1602.98 -29.41,4.68 -1.6,-10.09 29.4,-4.67 1.61,10.08 m -58.81,9.36 -29.41,4.68 -1.6,-10.09 29.4,-4.68 1.61,10.09 m -58.81,9.36 -29.41,4.67 -1.6,-10.08 29.4,-4.68 1.61,10.09 m -58.81,9.35 -29.41,4.68 -1.6,-10.09 29.4,-4.68 1.61,10.09 m -58.81,9.36 -29.41,4.68 -1.6,-10.09 29.4,-4.68 1.61,10.09 m -58.81,9.36 -29.41,4.67 -1.6,-10.09 29.4,-4.67 1.61,10.09 m -58.82,9.35 -29.4,4.68 -1.6,-10.09 29.4,-4.68 1.6,10.09"
         style="fill:#ffffff;fill-opacity:1;fill-rule:nonzero;stroke:none"
         id="path176" /><path
         d="m 2131.82,1668.47 -8.28,1.32 2.73,7.93 -9.65,3.33 -6.72,-19.43 20.32,-3.24 1.6,10.09 v 0"
         style="fill:#ffffff;fill-opacity:1;fill-rule:nonzero;stroke:none"
         id="path178" /><path
         d="m 2136.13,1706.25 9.85,28.54 -9.66,3.33 -9.85,-28.53 9.66,-3.34 m 19.7,57.08 9.85,28.53 -9.65,3.33 -9.85,-28.53 9.65,-3.33 m 19.71,57.07 9.85,28.53 -9.66,3.33 -9.85,-28.53 9.66,-3.33 m 19.7,57.07 9.86,28.53 -9.66,3.34 -9.85,-28.54 9.65,-3.33 m 19.71,57.07 9.85,28.53 -9.65,3.34 -9.86,-28.54 9.66,-3.33 m 19.7,57.07 9.86,28.54 -9.66,3.33 -9.85,-28.54 9.65,-3.33 m 19.71,57.07 9.85,28.54 -9.65,3.33 -9.86,-28.53 9.66,-3.34"
         style="fill:#ffffff;fill-opacity:1;fill-rule:nonzero;stroke:none"
         id="path180" /><path
         d="m 2274.07,2105.75 3.32,9.64 10.07,-1.61 1.6,10.09 -18.52,2.95 -6.13,-17.73 9.66,-3.34"
         style="fill:#ffffff;fill-opacity:1;fill-rule:nonzero;stroke:none"
         id="path182" /><path
         d="m 2316.87,2109.12 29.4,-4.68 1.61,10.09 -29.41,4.67 z m 58.81,-9.36 29.4,-4.68 1.61,10.09 -29.41,4.68 z m 58.81,-9.36 29.4,-4.67 1.61,10.08 -29.41,4.68 z m 58.81,-9.35 29.4,-4.68 1.61,10.09 -29.41,4.68 z m 58.81,-9.36 29.4,-4.68 1.61,10.09 -29.41,4.68 z m 58.81,-9.36 29.41,-4.67 1.6,10.09 -29.4,4.67 z m 58.81,-9.35 29.41,-4.68 1.6,10.09 -29.4,4.68 z"
         style="fill:#ffffff;fill-opacity:1;fill-rule:nonzero;stroke:none"
         id="path184" /><path
         d="m 2728.54,2043.63 8.29,-1.32 -2.74,-7.93 9.65,-3.33 6.72,19.43 -20.31,3.24 -1.61,-10.09"
         style="fill:#ffffff;fill-opacity:1;fill-rule:nonzero;stroke:none"
         id="path186" /><path
         d="m 2724.23,2005.85 -9.85,-28.54 9.66,-3.33 9.85,28.53 z m -19.7,-57.07 -9.85,-28.54 9.65,-3.33 9.85,28.53 z m -19.71,-57.08 -9.85,-28.53 9.65,-3.33 9.86,28.53 z m -19.7,-57.07 -9.86,-28.53 9.66,-3.34 9.85,28.54 z m -19.71,-57.07 -9.85,-28.53 9.65,-3.34 9.86,28.54 z m -19.71,-57.07 -9.85,-28.53 9.66,-3.34 9.85,28.54 z m -19.7,-57.07 -9.85,-28.53 9.65,-3.34 9.85,28.54 z"
         style="fill:#ffffff;fill-opacity:1;fill-rule:nonzero;stroke:none"
         id="path188" /><path
         d="m 3807.51,1388.47 -468.12,77.7 160.25,454.42 468.11,-77.71 -160.24,-454.41"
         style="fill:#1e3453;fill-opacity:1;fill-rule:nonzero;stroke:none"
         id="path190" /><path
         d="m 3801.73,1434.47 -422.3,70.1 3.95,11.18 422.29,-70.09 -3.94,-11.19"
         style="fill:#172434;fill-opacity:1;fill-rule:nonzero;stroke:none"
         id="path192" /><path
         d="m 3697.87,1456.62 -313.67,52.07 1.19,3.36 313.66,-52.06 -1.18,-3.37"
         style="fill:#ffffff;fill-opacity:1;fill-rule:nonzero;stroke:none"
         id="path194" /><path
         d="m 3768.74,1651 c -20.48,-58.09 -85.59,-97.12 -145.42,-87.19 -59.82,9.93 -91.73,65.07 -71.25,123.14 20.49,58.09 85.59,97.11 145.42,87.19 59.83,-9.93 91.73,-65.07 71.25,-123.14"
         style="fill:#1a2b3f;fill-opacity:1;fill-rule:nonzero;stroke:none"
         id="path196" /><path
         d="m 3628.09,1675.63 17.93,50.83 36.38,-32.93 36.39,-32.95 -54.32,-17.89 -54.3,-17.89 17.92,50.83"
         style="fill:#ffffff;fill-opacity:1;fill-rule:nonzero;stroke:none"
         id="path198" /><path
         d="m 3199.97,1482.31 -477.35,79.23 163.4,463.39 477.36,-79.24 -163.41,-463.38"
         style="fill:#eb2733;fill-opacity:1;fill-rule:nonzero;stroke:none"
         id="path200" /><path
         d="m 2880.21,1715.8 179.92,-29.86 c 11.69,-1.95 24.52,5.75 28.52,17.1 l 27.32,77.46 c 4,11.34 -2.29,22.21 -13.98,24.15 l -179.92,29.86 c -11.69,1.95 -24.52,-5.75 -28.53,-17.1 l -27.31,-77.45 c -4,-11.35 2.29,-22.22 13.98,-24.16"
         style="fill:#ffffff;fill-opacity:1;fill-rule:nonzero;stroke:none"
         id="path202" /><path
         d="m 2920.36,1723.48 -19.54,-72.67 -26.7,79.49 z"
         style="fill:#ffffff;fill-opacity:1;fill-rule:nonzero;stroke:none"
         id="path204" /><path
         d="m 3184.43,1730.89 -179.92,29.86 c -11.69,1.95 -17.98,12.81 -13.97,24.16 l 27.31,77.45 c 4,11.35 16.84,19.05 28.52,17.1 l 179.92,-29.86 c 11.69,-1.94 17.98,-12.81 13.98,-24.15 l -27.31,-77.46 c -4,-11.35 -16.84,-19.04 -28.53,-17.1"
         style="fill:#7798d6;fill-opacity:1;fill-rule:nonzero;stroke:none"
         id="path206" /><path
         d="m 3153.83,1750.3 -31.04,-70.75 76.72,62.32 z"
         style="fill:#7798d6;fill-opacity:1;fill-rule:nonzero;stroke:none"
         id="path208" /><path
         d="m 2772.02,2145.25 -477.35,79.24 163.41,463.38 477.35,-79.23 -163.41,-463.39"
         style="fill:#f04156;fill-opacity:1;fill-rule:nonzero;stroke:none"
         id="path210" /><path
         d="m 2591.13,2566.17 c -10.25,-6.24 -27.42,-16.66 -41.53,-25.15 l -80.48,-228.23 179.2,-29.74 91.15,258.49 -148.34,24.63"
         style="fill:#ffffff;fill-opacity:1;fill-rule:nonzero;stroke:none"
         id="path212" /><path
         d="m 2580.46,2535.9 10.67,30.27 c -14.11,-8.49 -31.28,-18.91 -41.53,-25.15 l 30.86,-5.12"
         style="fill:#1e3453;fill-opacity:1;fill-rule:nonzero;stroke:none"
         id="path214" /><path
         d="m 2679.28,2288.63 c -5.22,-14.79 -21.81,-24.74 -37.05,-22.21 -15.25,2.53 -23.37,16.58 -18.16,31.37 5.23,14.81 21.81,24.75 37.05,22.22 15.25,-2.53 23.38,-16.58 18.16,-31.38"
         style="fill:#1e3453;fill-opacity:1;fill-rule:nonzero;stroke:none"
         id="path216" /><path
         d="m 2649.44,2275.24 -8.2,1.36 12.23,34.66 8.2,-1.37 -12.23,-34.65"
         style="fill:#ffffff;fill-opacity:1;fill-rule:nonzero;stroke:none"
         id="path218" /><path
         d="m 2632.21,2292.23 2.8,7.97 35.69,-5.93 -2.8,-7.96 -35.69,5.92"
         style="fill:#ffffff;fill-opacity:1;fill-rule:nonzero;stroke:none"
         id="path220" /><path
         d="m 2708.88,2491.35 -156.11,25.91 2.23,6.33 156.11,-25.91 -2.23,-6.33"
         style="fill:#e9eaea;fill-opacity:1;fill-rule:nonzero;stroke:none"
         id="path222" /><path
         d="m 2703.08,2474.88 -156.12,25.92 2.24,6.33 156.1,-25.91 -2.22,-6.34"
         style="fill:#e9eaea;fill-opacity:1;fill-rule:nonzero;stroke:none"
         id="path224" /><path
         d="m 2697.27,2458.43 -156.11,25.91 2.23,6.33 156.11,-25.91 -2.23,-6.33"
         style="fill:#e9eaea;fill-opacity:1;fill-rule:nonzero;stroke:none"
         id="path226" /><path
         d="m 2691.46,2441.96 -156.11,25.91 2.24,6.34 156.1,-25.92 -2.23,-6.33"
         style="fill:#e9eaea;fill-opacity:1;fill-rule:nonzero;stroke:none"
         id="path228" /><path
         d="m 2685.65,2425.5 -156.1,25.91 2.23,6.33 156.11,-25.91 -2.24,-6.33"
         style="fill:#e9eaea;fill-opacity:1;fill-rule:nonzero;stroke:none"
         id="path230" /><path
         d="m 2679.85,2409.03 -156.11,25.92 2.24,6.33 156.1,-25.91 -2.23,-6.34"
         style="fill:#e9eaea;fill-opacity:1;fill-rule:nonzero;stroke:none"
         id="path232" /><path
         d="m 2674.04,2392.58 -156.1,25.91 2.24,6.32 156.1,-25.9 -2.24,-6.33"
         style="fill:#e9eaea;fill-opacity:1;fill-rule:nonzero;stroke:none"
         id="path234" /><path
         d="m 2668.24,2376.11 -156.11,25.91 2.24,6.34 156.11,-25.92 -2.24,-6.33"
         style="fill:#e9eaea;fill-opacity:1;fill-rule:nonzero;stroke:none"
         id="path236" /><path
         d="m 2662.43,2359.65 -156.1,25.91 2.23,6.33 156.11,-25.91 -2.24,-6.33"
         style="fill:#e9eaea;fill-opacity:1;fill-rule:nonzero;stroke:none"
         id="path238" /><path
         d="m 2656.63,2343.18 -156.11,25.92 2.23,6.33 156.12,-25.91 -2.24,-6.34"
         style="fill:#e9eaea;fill-opacity:1;fill-rule:nonzero;stroke:none"
         id="path240" /><path
         d="m 2650.83,2326.73 -156.11,25.91 2.23,6.32 156.11,-25.9 -2.23,-6.33"
         style="fill:#e9eaea;fill-opacity:1;fill-rule:nonzero;stroke:none"
         id="path242" /><path
         d="m 3384.26,2067.59 -3.32,-9.64 -10.07,1.61 -1.6,-10.09 18.52,-2.95 6.13,17.73 -9.66,3.34"
         style="fill:#ffffff;fill-opacity:1;fill-rule:nonzero;stroke:none"
         id="path244" /><path
         d="m 3341.47,2064.23 -29.41,4.68 -1.6,-10.09 29.4,-4.67 z m -58.81,9.36 -29.41,4.68 -1.6,-10.09 29.4,-4.68 z m -58.82,9.35 -29.4,4.68 -1.61,-10.09 29.41,-4.68 z m -58.81,9.36 -29.4,4.68 -1.61,-10.09 29.41,-4.68 z m -58.81,9.35 -29.4,4.68 -1.61,-10.09 29.41,-4.68 z m -58.81,9.36 -29.4,4.67 -1.61,-10.08 29.41,-4.68 z m -58.81,9.35 -29.4,4.68 -1.61,-10.09 29.41,-4.68 z"
         style="fill:#ffffff;fill-opacity:1;fill-rule:nonzero;stroke:none"
         id="path246" /><path
         d="m 2929.79,2129.72 -8.29,1.32 2.74,7.93 -9.65,3.33 -6.72,-19.45 20.33,-3.22 1.59,10.09"
         style="fill:#ffffff;fill-opacity:1;fill-rule:nonzero;stroke:none"
         id="path248" /><path
         d="m 2934.1,2167.5 9.85,28.54 -9.66,3.33 -9.85,-28.53 z m 19.7,57.07 9.85,28.54 -9.65,3.33 -9.85,-28.53 z m 19.71,57.07 9.85,28.54 -9.66,3.33 -9.85,-28.53 z m 19.7,57.08 9.86,28.53 -9.66,3.34 -9.85,-28.54 z m 19.71,57.07 9.85,28.53 -9.65,3.34 -9.86,-28.54 z m 19.71,57.07 9.85,28.53 -9.66,3.34 -9.85,-28.54 z m 19.7,57.07 9.86,28.53 -9.66,3.34 -9.85,-28.54 z"
         style="fill:#ffffff;fill-opacity:1;fill-rule:nonzero;stroke:none"
         id="path250" /><path
         d="m 3072.03,2567 3.33,9.64 10.07,-1.61 1.6,10.09 -18.53,2.95 -6.12,-17.74 9.66,-3.33"
         style="fill:#ffffff;fill-opacity:1;fill-rule:nonzero;stroke:none"
         id="path252" /><path
         d="m 3114.84,2570.36 29.41,-4.68 1.6,10.09 -29.4,4.67 z m 58.81,-9.36 29.41,-4.68 1.6,10.09 -29.4,4.68 z m 58.81,-9.35 29.41,-4.68 1.6,10.09 -29.4,4.67 z m 58.81,-9.36 29.41,-4.68 1.6,10.09 -29.4,4.68 z m 58.81,-9.35 29.41,-4.68 1.6,10.09 -29.4,4.67 z m 58.81,-9.36 29.41,-4.68 1.61,10.09 -29.41,4.68 z m 58.82,-9.35 29.4,-4.68 1.61,10.09 -29.41,4.68 z"
         style="fill:#ffffff;fill-opacity:1;fill-rule:nonzero;stroke:none"
         id="path254" /><path
         d="m 3526.51,2504.87 8.29,-1.32 -2.74,-7.93 9.65,-3.33 6.72,19.44 -20.31,3.23 -1.61,-10.09"
         style="fill:#ffffff;fill-opacity:1;fill-rule:nonzero;stroke:none"
         id="path256" /><path
         d="m 3522.2,2467.09 -9.85,-28.54 9.66,-3.33 9.85,28.53 z m -19.7,-57.07 -9.86,-28.54 9.66,-3.33 9.85,28.53 z m -19.71,-57.08 -9.85,-28.53 9.66,-3.34 9.85,28.54 z m -19.7,-57.07 -9.86,-28.53 9.66,-3.34 9.85,28.54 z m -19.71,-57.07 -9.85,-28.53 9.66,-3.34 9.85,28.54 z m -19.7,-57.07 -9.86,-28.54 9.66,-3.33 9.85,28.54 z m -19.71,-57.07 -9.85,-28.54 9.66,-3.33 9.85,28.54 z"
         style="fill:#ffffff;fill-opacity:1;fill-rule:nonzero;stroke:none"
         id="path258" /><path
         d="m 3285.64,2171.91 -469.67,74.71 157.24,455.41 469.68,-74.72 -157.25,-455.4"
         style="fill:#81cc29;fill-opacity:1;fill-rule:nonzero;stroke:none"
         id="path260" /><path
         d="m 2898.13,2337.59 369.51,-61.33 -7.08,151.32 -156.75,-36.12 -75.48,88.47 -130.2,-142.34"
         style="fill:#ffffff;fill-opacity:1;fill-rule:nonzero;stroke:none"
         id="path262" /><path
         d="m 3340.6,2508.35 c -10.64,-30.16 -44.46,-50.43 -75.53,-45.27 -31.08,5.15 -47.65,33.79 -37,63.96 10.63,30.16 44.45,50.44 75.52,45.27 31.08,-5.15 47.64,-33.79 37.01,-63.96"
         style="fill:#ffffff;fill-opacity:1;fill-rule:nonzero;stroke:none"
         id="path264" /><g
         id="g266"
         transform="scale(10)"><text
           transform="matrix(0.9512741,-0.15767322,-0.30834655,-0.92630099,364.535,219.158)"
           style="font-variant:normal;font-weight:normal;font-size:15.5451px;font-family:BebasNeueBold;-inkscape-font-specification:BebasNeueBold;writing-mode:lr-tb;fill:#1e3453;fill-opacity:1;fill-rule:nonzero;stroke:none"
           id="text270"><tspan
             x="0 6.1564007 12.156816 14.566308 22.976215 25.385708 31.198807"
             y="0"
             sodipodi:role="line"
             id="tspan268">&lt;C M S&gt;</tspan></text></g><path
         d="M 3969.95,1142.41 2703.9,596.582 386.98,1166.33 l 1397.56,336.68 2185.41,-360.6"
         style="fill:#e9eaea;fill-opacity:1;fill-rule:nonzero;stroke:none"
         id="path272" /><path
         d="M 3750.66,1121.97 1800.89,1475.6 c 0,0 54.4,8.01 0,0 -58.24,-8.59 -765.54,-200.21 -717.53,-186.64 L 3039.7,860.551 3750.66,1121.97"
         style="fill:#d3d4d3;fill-opacity:1;fill-rule:nonzero;stroke:none"
         id="path274" /><path
         d="m 2457.59,1298.92 72.6,24.93 117.1,-21.35 -69.15,-26.13 -120.55,22.55"
         style="fill:#1e3453;fill-opacity:1;fill-rule:nonzero;stroke:none"
         id="path276" /><path
         d="m 2285.93,1331.02 73.22,24.01 144.51,-26.35 -72.36,-24.84 -145.37,27.18"
         style="fill:#1e3453;fill-opacity:1;fill-rule:nonzero;stroke:none"
         id="path278" /><path
         d="m 3224.97,1155.42 76.89,27.75 151.45,-27.61 -78.16,-28.22 -150.18,28.08"
         style="fill:#1e3453;fill-opacity:1;fill-rule:nonzero;stroke:none"
         id="path280" /><path
         d="m 2603.11,1271.7 69.34,26.22 117.34,-21.4 -70.31,-26.58 -116.37,21.76"
         style="fill:#1e3453;fill-opacity:1;fill-rule:nonzero;stroke:none"
         id="path282" /><path
         d="m 3057.34,1186.76 75.44,27.23 143.26,-26.11 -76.66,-27.67 -142.04,26.55"
         style="fill:#1e3453;fill-opacity:1;fill-rule:nonzero;stroke:none"
         id="path284" /><path
         d="m 2125.87,1360.95 75.07,22.93 131.01,-23.89 -72.97,-23.94 -133.11,24.9"
         style="fill:#1e3453;fill-opacity:1;fill-rule:nonzero;stroke:none"
         id="path286" /><path
         d="m 2891.8,1217.72 74,26.71 141.17,-25.73 -75.21,-27.15 -139.96,26.17"
         style="fill:#1e3453;fill-opacity:1;fill-rule:nonzero;stroke:none"
         id="path288" /><path
         d="m 2744.43,1245.27 70.53,26.66 125.03,-22.79 -73.78,-26.63 -121.78,22.76"
         style="fill:#1e3453;fill-opacity:1;fill-rule:nonzero;stroke:none"
         id="path290" /><path
         d="m 1828.5,1416.55 99.13,17.15 245.04,-44.67 -74.8,-22.85 -269.37,50.37"
         style="fill:#1e3453;fill-opacity:1;fill-rule:nonzero;stroke:none"
         id="path292" /><path
         d="m 3644.1,1120.78 -94.9,-25.99 -148.47,27.76 78.39,28.3 164.98,-30.07"
         style="fill:#1e3453;fill-opacity:1;fill-rule:nonzero;stroke:none"
         id="path294" /><path
         d="m 3250.62,1068.36 154.72,-30.65 -82.57,-29.98 -153.03,31.43 80.88,29.2"
         style="fill:#1e3453;fill-opacity:1;fill-rule:nonzero;stroke:none"
         id="path296" /><path
         d="m 1402.14,1237.4 -162.66,33.55 96.06,26 154.1,-32.82 -87.5,-26.73"
         style="fill:#1e3453;fill-opacity:1;fill-rule:nonzero;stroke:none"
         id="path298" /><path
         d="m 1517.35,1272.59 -152.11,32.4 75.43,20.43 147.06,-31.33 -70.38,-21.5"
         style="fill:#1e3453;fill-opacity:1;fill-rule:nonzero;stroke:none"
         id="path300" /><path
         d="m 2974.58,1061.87 153.13,-31.44 -86.83,-31.52 -151.4,32.25 85.1,30.71"
         style="fill:#1e3453;fill-opacity:1;fill-rule:nonzero;stroke:none"
         id="path302" /><path
         d="m 3078.9,1116.71 -139.21,27.58 67.64,24.42 141.15,-26.88 -69.58,-25.12"
         style="fill:#1e3453;fill-opacity:1;fill-rule:nonzero;stroke:none"
         id="path304" /><path
         d="m 3348.56,1103.72 156.51,-29.8 -74.2,-26.95 -154.63,30.64 72.32,26.11"
         style="fill:#1e3453;fill-opacity:1;fill-rule:nonzero;stroke:none"
         id="path306" /><path
         d="m 3251.15,1082.58 -147.18,29.16 69.94,25.24 149.22,-28.42 -71.98,-25.98"
         style="fill:#1e3453;fill-opacity:1;fill-rule:nonzero;stroke:none"
         id="path308" /><path
         d="m 2914.61,1149.26 -137.18,27.18 65.4,23.6 139.07,-26.49 -67.29,-24.29"
         style="fill:#1e3453;fill-opacity:1;fill-rule:nonzero;stroke:none"
         id="path310" /><path
         d="m 1888.64,1302.27 -139.86,28.73 74.46,20.15 136.74,-27.09 -71.34,-21.79"
         style="fill:#1e3453;fill-opacity:1;fill-rule:nonzero;stroke:none"
         id="path312" /><path
         d="m 1725.01,1338.24 -139.85,28.73 79.68,19.08 136.75,-27.09 -76.58,-20.72"
         style="fill:#1e3453;fill-opacity:1;fill-rule:nonzero;stroke:none"
         id="path314" /><path
         d="m 2150.82,1300.58 -135.01,26.74 60.95,18.62 134.35,-25.59 -60.29,-19.77"
         style="fill:#1e3453;fill-opacity:1;fill-rule:nonzero;stroke:none"
         id="path316" /><path
         d="m 1615.44,1302.56 -145.06,30.9 78.44,21.24 141.91,-29.15 -75.29,-22.99"
         style="fill:#1e3453;fill-opacity:1;fill-rule:nonzero;stroke:none"
         id="path318" /><path
         d="m 2473.21,1236.71 -124.77,24.72 61.38,21.08 122.73,-23.38 -59.34,-22.42"
         style="fill:#1e3453;fill-opacity:1;fill-rule:nonzero;stroke:none"
         id="path320" /><path
         d="m 1853.79,1359.42 62.85,17.03 132.32,-25.21 -60.53,-18.49 -134.64,26.67"
         style="fill:#1e3453;fill-opacity:1;fill-rule:nonzero;stroke:none"
         id="path322" /><path
         d="m 1701.62,1394.16 57.76,14.99 132.31,-25.2 -55.43,-16.46 -134.64,26.67"
         style="fill:#1e3453;fill-opacity:1;fill-rule:nonzero;stroke:none"
         id="path324" /><path
         d="m 2752.35,1181.4 -116.07,22.99 61.54,23.27 119.58,-22.78 -65.05,-23.48"
         style="fill:#1e3453;fill-opacity:1;fill-rule:nonzero;stroke:none"
         id="path326" /><path
         d="m 2322.69,1266.52 -145.49,28.83 60.69,19.9 145.82,-27.77 -61.02,-20.96"
         style="fill:#1e3453;fill-opacity:1;fill-rule:nonzero;stroke:none"
         id="path328" /><path
         d="m 2611.81,1209.25 -114.12,22.61 59.66,22.55 115.67,-22.03 -61.21,-23.13"
         style="fill:#1e3453;fill-opacity:1;fill-rule:nonzero;stroke:none"
         id="path330" /><path
         d="m 1928.82,1221.43 -65.57,-22.52 -149.78,31.9 67.45,22.12 147.9,-31.5"
         style="fill:#1e3453;fill-opacity:1;fill-rule:nonzero;stroke:none"
         id="path332" /><path
         d="m 2837.5,1107.4 76.56,27.64 139.21,-27.59 -78.34,-28.28 -137.43,28.23"
         style="fill:#1e3453;fill-opacity:1;fill-rule:nonzero;stroke:none"
         id="path334" /><path
         d="m 2804.53,1096.81 145.29,-29.85 -84.76,-30.6 -143.36,30.54 82.83,29.91"
         style="fill:#1e3453;fill-opacity:1;fill-rule:nonzero;stroke:none"
         id="path336" /><path
         d="m 2540.85,1168.32 70.57,26.68 115.31,-22.85 -74.16,-26.77 -111.72,22.94"
         style="fill:#1e3453;fill-opacity:1;fill-rule:nonzero;stroke:none"
         id="path338" /><path
         d="m 3078.36,1102.49 147.18,-29.16 -80.56,-29.08 -145.29,29.84 78.67,28.4"
         style="fill:#1e3453;fill-opacity:1;fill-rule:nonzero;stroke:none"
         id="path340" /><path
         d="m 2677.32,1140.29 74.49,26.89 137.17,-27.17 -76.24,-27.53 -135.42,27.81"
         style="fill:#1e3453;fill-opacity:1;fill-rule:nonzero;stroke:none"
         id="path342" /><path
         d="m 1915.63,1296.73 71.74,21.9 136.22,-26.98 -70.55,-23.14 -137.41,28.22"
         style="fill:#1e3453;fill-opacity:1;fill-rule:nonzero;stroke:none"
         id="path344" /><path
         d="m 2403.97,1196.44 68.85,26.01 114.12,-22.61 -70.26,-26.55 -112.71,23.15"
         style="fill:#1e3453;fill-opacity:1;fill-rule:nonzero;stroke:none"
         id="path346" /><path
         d="m 2079.06,1263.16 70.91,23.26 146.27,-28.98 -70.84,-24.33 -146.34,30.05"
         style="fill:#1e3453;fill-opacity:1;fill-rule:nonzero;stroke:none"
         id="path348" /><path
         d="m 2250.81,1227.89 71.18,24.45 126.35,-25.04 -68.54,-25.9 -128.99,26.49"
         style="fill:#1e3453;fill-opacity:1;fill-rule:nonzero;stroke:none"
         id="path350" /><path
         d="m 2512.21,1097.16 -63.57,-22.95 -133.62,28.47 63.57,22.94 133.62,-28.46"
         style="fill:#1e3453;fill-opacity:1;fill-rule:nonzero;stroke:none"
         id="path352" /><path
         d="m 2088.62,1187.38 -61.74,-23.33 -138.57,29.51 65.57,22.53 134.74,-28.71"
         style="fill:#1e3453;fill-opacity:1;fill-rule:nonzero;stroke:none"
         id="path354" /><path
         d="m 2223.73,1158.61 -61.74,-23.34 -111.25,23.69 61.75,23.34 111.24,-23.69"
         style="fill:#1e3453;fill-opacity:1;fill-rule:nonzero;stroke:none"
         id="path356" /><path
         d="m 1614.33,1288.43 140.94,-30.03 -67.45,-22.12 -143.87,30.64 70.38,21.51"
         style="fill:#1e3453;fill-opacity:1;fill-rule:nonzero;stroke:none"
         id="path358" /><path
         d="m 2840.02,1027.32 -63.56,-22.95 -143.36,30.54 63.57,22.95 143.35,-30.54"
         style="fill:#1e3453;fill-opacity:1;fill-rule:nonzero;stroke:none"
         id="path360" /><path
         d="m 1516.24,1258.46 145.02,-30.89 -81.63,-26.78 -150.54,31.05 87.15,26.62"
         style="fill:#1e3453;fill-opacity:1;fill-rule:nonzero;stroke:none"
         id="path362" /><path
         d="m 2864.45,1022.12 151.48,-32.268 -63.35,-22.993 -151.7,32.313 63.57,22.948"
         style="fill:#1e3453;fill-opacity:1;fill-rule:nonzero;stroke:none"
         id="path364" /><path
         d="m 2672.24,1063.07 -63.57,-22.95 -135.6,28.88 63.56,22.95 135.61,-28.88"
         style="fill:#1e3453;fill-opacity:1;fill-rule:nonzero;stroke:none"
         id="path366" /><path
         d="m 1807.48,1261.64 74.85,24.56 147.1,-30.21 -74.79,-25.7 -147.16,31.35"
         style="fill:#1e3453;fill-opacity:1;fill-rule:nonzero;stroke:none"
         id="path368" /><path
         d="m 2354.17,1130.82 -63.57,-22.95 -104.76,22.32 61.75,23.34 106.58,-22.71"
         style="fill:#1e3453;fill-opacity:1;fill-rule:nonzero;stroke:none"
         id="path370" /><path
         d="m 2265.57,1098.84 -69.65,-25.15 -103.22,21.29 68.83,26.02 104.04,-22.16"
         style="fill:#1e3453;fill-opacity:1;fill-rule:nonzero;stroke:none"
         id="path372" /><path
         d="m 2751.43,995.34 -63.84,-23.051 -145.07,29.921 65.55,23.67 143.36,-30.54"
         style="fill:#1e3453;fill-opacity:1;fill-rule:nonzero;stroke:none"
         id="path374" /><path
         d="m 2137.68,1126.07 -69.12,-26.11 -112.53,23.21 70.4,26.61 111.25,-23.71"
         style="fill:#1e3453;fill-opacity:1;fill-rule:nonzero;stroke:none"
         id="path376" /><path
         d="m 2927.64,957.801 -61.51,-22.332 -153.83,31.73 63.55,22.942 151.79,-32.34"
         style="fill:#1e3453;fill-opacity:1;fill-rule:nonzero;stroke:none"
         id="path378" /><path
         d="m 1979.7,1224.96 75.14,25.81 130.54,-26.81 -72.44,-27.38 -133.24,28.38"
         style="fill:#1e3453;fill-opacity:1;fill-rule:nonzero;stroke:none"
         id="path380" /><path
         d="m 2583.64,1031.08 -65.85,-23.77 -137.22,28.3 67.47,24.36 135.6,-28.89"
         style="fill:#1e3453;fill-opacity:1;fill-rule:nonzero;stroke:none"
         id="path382" /><path
         d="m 2002.57,1154.86 -70.68,-26.72 -146.24,30.16 76.84,26.4 140.08,-29.84"
         style="fill:#1e3453;fill-opacity:1;fill-rule:nonzero;stroke:none"
         id="path384" /><path
         d="m 2423.61,1065.17 -67.76,-24.46 -135.21,27.88 69.36,25.04 133.61,-28.46"
         style="fill:#1e3453;fill-opacity:1;fill-rule:nonzero;stroke:none"
         id="path386" /><path
         d="m 2779.78,1101.88 -82.51,-29.78 -135.6,28.89 80.67,29.12 137.44,-28.23"
         style="fill:#1e3453;fill-opacity:1;fill-rule:nonzero;stroke:none"
         id="path388" /><path
         d="m 2271.9,1162.71 74.53,28.18 110.98,-22.79 -78.21,-28.24 -107.3,22.85"
         style="fill:#1e3453;fill-opacity:1;fill-rule:nonzero;stroke:none"
         id="path390" /><path
         d="m 2136.79,1191.49 72.76,27.5 112.71,-23.14 -74.22,-28.06 -111.25,23.7"
         style="fill:#1e3453;fill-opacity:1;fill-rule:nonzero;stroke:none"
         id="path392" /><path
         d="m 1837.44,1190.04 -77.16,-26.5 -154.66,31.89 81.29,26.67 150.53,-32.06"
         style="fill:#1e3453;fill-opacity:1;fill-rule:nonzero;stroke:none"
         id="path394" /><path
         d="m 2403.63,1134.66 78.54,28.35 135.42,-27.81 -80.34,-29.01 -133.62,28.47"
         style="fill:#1e3453;fill-opacity:1;fill-rule:nonzero;stroke:none"
         id="path396" /><path
         d="m 1781.82,1267.11 -139.77,29.77 75.67,23.13 138.59,-28.47 -74.49,-24.43"
         style="fill:#1e3453;fill-opacity:1;fill-rule:nonzero;stroke:none"
         id="path398" /><path
         d="M 2238.43,1001.24 1688.42,1119.6 1247.03,995.84 1851.04,858.059 2238.43,1001.24"
         style="fill:#bbbcbd;fill-opacity:1;fill-rule:nonzero;stroke:none"
         id="path400" /><path
         d="m 2886.46,930.43 149.79,54.379 74.39,-13.668 116.22,39.569 74.91,-13.73 -265.43,-98 -149.88,31.45"
         style="fill:#1e3453;fill-opacity:1;fill-rule:nonzero;stroke:none"
         id="path402" /><path
         d="m 3761.13,2421.35 595.89,-98.77 c 27.92,-4.62 59.36,13.63 69.87,40.57 l 111.59,286 c 10.51,26.94 -3.72,52.77 -31.64,57.4 l -595.89,98.77 c -27.91,4.63 -59.36,-13.63 -69.88,-40.57 l -111.58,-286 c -10.52,-26.94 3.72,-52.77 31.64,-57.4"
         style="fill:#e55d32;fill-opacity:1;fill-rule:nonzero;stroke:none"
         id="path404" /><path
         d="m 3861.55,2784.06 25.77,77.42 626.44,-123.89 -85.35,-188.88 -566.86,235.35"
         style="fill:#ffffff;fill-opacity:1;fill-rule:nonzero;stroke:none"
         id="path406" /><path
         d="m 4340,2325.4 -595.89,98.77 c -27.91,4.63 -44.55,30.86 -36.96,58.28 l 80.53,291.15 c 7.58,27.43 36.63,46.08 64.55,41.45 l 595.89,-98.77 c 27.92,-4.62 44.55,-30.85 36.96,-58.28 l -80.53,-291.14 c -7.59,-27.43 -36.63,-46.09 -64.55,-41.46"
         style="fill:#f8a62d;fill-opacity:1;fill-rule:nonzero;stroke:none"
         id="path408" /><path
         d="m 4220.28,2743.87 8.32,25.01 c 2.8,8.36 12.02,13.99 20.61,12.57 l 161.18,-26.72 -14.21,-42.71 -175.9,31.85"
         style="fill:#f8a62d;fill-opacity:1;fill-rule:nonzero;stroke:none"
         id="path410" /><g
         id="g412"
         transform="scale(10)"><text
           transform="matrix(0.95127382,-0.15767366,-0.30834741,-0.92630357,389.812,250.095)"
           style="font-variant:normal;font-weight:normal;font-size:28.0453px;font-family:BebasNeueBold;-inkscape-font-specification:BebasNeueBold;writing-mode:lr-tb;fill:#7b4e1b;fill-opacity:1;fill-rule:nonzero;stroke:none"
           id="text418"><tspan
             x="0"
             y="0"
             id="tspan414">&lt;</tspan><tspan
             x="11.105452 21.790155"
             y="-0.00059491704"
             sodipodi:role="line"
             id="tspan416">/&gt;</tspan></text></g><path
         d="m 1817.73,1601.07 -1.67,0.28 c -53.17,8.81 -82.3,57.93 -65.07,109.7 l 60.08,180.5 c 15.44,46.38 62.85,79.16 110.78,79.16 5.59,0 11.17,-0.45 16.71,-1.36 l 3.62,-0.6 -124.45,-367.68"
         style="fill:#e82c3b;fill-opacity:1;fill-rule:nonzero;stroke:none"
         id="path420" /><path
         d="m 1891.49,1588.84 -73.76,12.23 124.45,367.68 73.77,-12.23 -124.46,-367.68"
         style="fill:#e02834;fill-opacity:1;fill-rule:nonzero;stroke:none"
         id="path422" /><path
         d="m 1891.49,1588.84 v 0 l 124.46,367.68 v 0 l -124.46,-367.68"
         style="fill:#e4293a;fill-opacity:1;fill-rule:nonzero;stroke:none"
         id="path424" /><path
         d="m 2214.67,1536.68 c -5.59,0 -11.18,0.45 -16.73,1.37 l -306.45,50.79 124.46,367.68 304.49,-50.48 c 53.18,-8.8 82.31,-57.92 65.08,-109.7 l -60.09,-180.5 c -15.43,-46.37 -62.84,-79.16 -110.76,-79.16 m 64.18,108.41 -1.6,-10.09 29.4,-4.68 1.61,10.09 -29.41,4.68 m -58.81,9.35 -1.6,-10.09 29.4,-4.67 1.61,10.09 -29.41,4.67 m -58.81,9.36 -1.6,-10.09 29.4,-4.68 1.6,10.09 -29.4,4.68 m -44.61,17.25 -6.72,-19.43 20.32,-3.24 1.6,10.09 v 0 l -8.28,1.32 2.73,7.93 -9.65,3.33 m -84.71,147.57 -21.73,-65.3 -21.74,-65.3 68.95,23.03 68.94,23.02 -47.2,42.28 -47.22,42.27 m 104.41,-90.5 -9.85,-28.53 9.66,-3.34 9.85,28.54 -9.66,3.33 m 19.71,57.07 -9.85,-28.53 9.65,-3.33 9.85,28.53 -9.65,3.33 m 19.7,57.07 -9.85,-28.53 9.66,-3.33 9.85,28.53 -9.66,3.33 m 19.71,57.08 -9.85,-28.54 9.65,-3.33 9.86,28.53 -9.66,3.34"
         style="fill:#e5293b;fill-opacity:1;fill-rule:nonzero;stroke:none"
         id="path426" /><path
         d="m 2306.65,1630.32 -29.4,4.68 1.6,10.09 29.41,-4.68 -1.61,-10.09 m -58.81,9.36 -29.4,4.67 1.6,10.09 29.41,-4.67 -1.61,-10.09 m -58.81,9.35 -29.4,4.68 1.6,10.09 29.4,-4.68 -1.6,-10.09"
         style="fill:#eb2c3a;fill-opacity:1;fill-rule:nonzero;stroke:none"
         id="path428" /><path
         d="m 2130.22,1658.38 -20.32,3.24 6.72,19.43 9.65,-3.33 -2.73,-7.93 8.28,-1.32 v 0 l -1.6,-10.09"
         style="fill:#eb2c3a;fill-opacity:1;fill-rule:nonzero;stroke:none"
         id="path430" /><path
         d="m 2136.13,1706.25 -9.66,3.34 9.85,28.53 9.66,-3.33 -9.85,-28.54 m 19.7,57.08 -9.65,3.33 9.85,28.53 9.65,-3.33 -9.85,-28.53 m 19.71,57.07 -9.66,3.33 9.85,28.53 9.66,-3.33 -9.85,-28.53 m 19.7,57.07 -9.65,3.33 9.85,28.54 9.66,-3.34 -9.86,-28.53"
         style="fill:#eb2c3a;fill-opacity:1;fill-rule:nonzero;stroke:none"
         id="path432" /><path
         d="m 1988.44,1698.02 21.74,65.3 21.73,65.3 47.22,-42.27 47.2,-42.28 -68.94,-23.02 -68.95,-23.03"
         style="fill:#fafcfe;fill-opacity:1;fill-rule:nonzero;stroke:none"
         id="path434" /><path
         d="m 2671.25,1387.29 c 0,0 -197.01,-189.4 -248.7,-227.73 0,0 334.12,-12.08 618.73,123.02 284.62,135.1 379.46,285.96 443.1,391.39 0,0 -316.47,-52.58 -385.2,-60.1 0,0 -22.86,-163.22 -169.22,-273.55 0,0 -100.15,-2.45 -258.71,46.97"
         style="fill:#ffffff;fill-opacity:1;fill-rule:nonzero;stroke:none"
         id="path436" /><path
         d="m 2422.55,1159.56 c 0,0 334.12,-12.08 618.73,123.02 89.41,42.43 160.08,86.43 216.95,130.09 -168.79,-77.26 -328.27,-72.35 -328.27,-72.35 0,0 -100.15,-2.45 -258.7,46.97 0,0 -197.02,-189.4 -248.71,-227.73"
         style="fill:#e0c1e5;fill-opacity:1;fill-rule:nonzero;stroke:none"
         id="path438" /><path
         d="m 2180.15,2345.93 -540.46,89.59 175.18,526.26 540.46,-89.58 -175.18,-526.27"
         style="fill:#81cc29;fill-opacity:1;fill-rule:nonzero;stroke:none"
         id="path440" /><path
         d="m 2089.51,2764.41 c 26.53,15.91 57.31,15.73 78.59,1.87 l -59.41,-35.64 c -13.94,-8.36 -19.66,-25.03 -12.7,-37.06 6.96,-12.01 24.06,-15.01 38.01,-6.65 l 59.41,35.64 c 1.6,-25.67 -13.15,-53.17 -39.67,-69.07 -26.53,-15.91 -57.31,-15.72 -78.6,-1.86 l -193.87,-116.27 c -13.94,-8.37 -31.04,-5.37 -38,6.65 -6.96,12.02 -1.24,28.69 12.7,37.06 l 193.86,116.27 c -1.6,25.66 13.15,53.16 39.68,69.06"
         style="fill:#ffffff;fill-opacity:1;fill-rule:nonzero;stroke:none"
         id="path442" /><path
         d="m 2006.76,2681.84 -52.03,82.74 c 0,0 37.79,23.38 64.05,10.14 0,0 4.38,-1.85 7.32,0.45 2.94,2.29 3.96,4.03 -2.33,8.67 -6.28,4.64 -43.24,34.07 -115.15,-17.97 0,0 -4.98,-33.9 -38.82,-23.21 l -25.8,-15.42 28.13,-46.17 26.33,16.39 c 0,0 -4.39,15.55 13.17,23.87 17.55,8.31 25.44,-6.55 25.44,-6.55 l 30.31,-56.18 39.38,23.24"
         style="fill:#ffffff;fill-opacity:1;fill-rule:nonzero;stroke:none"
         id="path444" /><path
         d="m 2100.81,2530.52 -54.01,86.4 -43.22,-24.59 46.84,-87.76 c 0,0 20.59,-16.55 36.53,-4.58 15.94,11.97 16.3,25.46 13.86,30.53"
         style="fill:#ffffff;fill-opacity:1;fill-rule:nonzero;stroke:none"
         id="path446" /><path
         d="M 738.359,1442.71 1395.3,1333.83 c 30.77,-5.11 65.44,15.03 77.02,44.72 l 123.03,315.31 c 11.59,29.69 -4.11,58.17 -34.89,63.27 l -656.937,108.9 c -30.773,5.09 -65.437,-15.03 -77.031,-44.74 L 703.473,1506 c -11.586,-29.71 4.109,-58.18 34.886,-63.29"
         style="fill:#f46b34;fill-opacity:1;fill-rule:nonzero;stroke:none"
         id="path448" /><path
         d="M 809.977,1843.05 829.75,1915 1593.39,1772.16 1455.87,1424.91 809.977,1843.05"
         style="fill:#d4d4d2;fill-opacity:1;fill-rule:nonzero;stroke:none"
         id="path450" /><path
         d="m 849.063,1842.58 28.414,85.36 690.623,-136.58 -94.11,-208.24 -624.927,259.46"
         style="fill:#ffffff;fill-opacity:1;fill-rule:nonzero;stroke:none"
         id="path452" /><path
         d="m 1376.53,1336.93 -656.928,108.9 c -30.778,5.1 -49.118,34.01 -40.758,64.25 l 88.777,320.97 c 8.363,30.24 40.391,50.81 71.168,45.7 l 656.931,-108.89 c 30.78,-5.1 49.12,-34.01 40.75,-64.25 l -88.77,-320.97 c -8.36,-30.24 -40.39,-50.8 -71.17,-45.71"
         style="fill:#f8a62d;fill-opacity:1;fill-rule:nonzero;stroke:none"
         id="path454" /><path
         d="m 1244.55,1798.27 9.18,27.57 c 3.07,9.23 13.23,15.43 22.71,13.86 l 177.7,-29.46 -15.67,-47.08 -193.92,35.11"
         style="fill:#f8a62d;fill-opacity:1;fill-rule:nonzero;stroke:none"
         id="path456" /><path
         d="m 1004.31,1545.47 141.08,-23.39 -30.94,130.66 z m 150.46,-42.72 -171.055,28.35 c -3.09,0.51 -5.414,2.59 -6.094,5.45 -0.68,2.86 0.399,6.09 2.809,8.43 l 133.54,130.07 c 2.42,2.35 5.81,3.49 8.9,2.97 3.09,-0.52 5.41,-2.59 6.09,-5.45 l 37.51,-158.43 c 0.68,-2.86 -0.39,-6.07 -2.8,-8.43 -2.42,-2.34 -5.81,-3.47 -8.9,-2.96"
         style="fill:#87551c;fill-opacity:1;fill-rule:nonzero;stroke:none"
         id="path458" /><path
         d="m 1082.03,1567.92 16.52,54.82 11.21,-1.85 -19.79,-54.29 z m -8.33,-15.77 c 1.36,4.09 5.26,6.56 9.23,5.91 4.2,-0.7 5.91,-4.1 4.55,-8.19 -1.33,-3.98 -5.03,-6.61 -9.24,-5.91 -4.08,0.68 -5.86,4.21 -4.54,8.19"
         style="fill:#87551c;fill-opacity:1;fill-rule:nonzero;stroke:none"
         id="path460" /><path
         d="m 2373.45,3097.81 504.19,-83.57 c 23.62,-3.91 50.22,11.54 59.12,34.33 l 94.41,241.99 c 8.9,22.79 -3.15,44.65 -26.78,48.56 l -504.18,83.58 c -23.62,3.91 -50.23,-11.54 -59.12,-34.34 l -94.42,-241.98 c -8.89,-22.8 3.15,-44.65 26.78,-48.57"
         style="fill:#f46b34;fill-opacity:1;fill-rule:nonzero;stroke:none"
         id="path462" /><path
         d="m 2428.41,3405.06 15.17,55.22 586.09,-109.62 -105.55,-266.51 -495.71,320.91"
         style="fill:#d4d4d2;fill-opacity:1;fill-rule:nonzero;stroke:none"
         id="path464" /><path
         d="m 2458.41,3404.71 21.8,65.5 530.04,-104.82 -72.21,-159.82 -479.63,199.14"
         style="fill:#ffffff;fill-opacity:1;fill-rule:nonzero;stroke:none"
         id="path466" /><path
         d="m 2863.23,3016.63 -504.18,83.57 c -23.63,3.92 -37.7,26.1 -31.28,49.31 l 68.13,246.34 c 6.42,23.21 31,38.99 54.62,35.08 l 504.19,-83.57 c 23.62,-3.92 37.69,-26.11 31.28,-49.31 l -68.14,-246.35 c -6.41,-23.2 -30.99,-38.99 -54.62,-35.07"
         style="fill:#f8a62d;fill-opacity:1;fill-rule:nonzero;stroke:none"
         id="path468" /><path
         d="m 2522.36,3191.62 222.52,-36.94 42.79,121.32 -222.52,36.93 z m 222.1,-60.15 -237.18,39.37 c -8.46,1.4 -12.97,9.22 -10.08,17.42 l 47.8,135.55 c 2.89,8.2 12.12,13.74 20.57,12.34 l 237.18,-39.37 c 8.45,-1.4 12.97,-9.22 10.08,-17.42 l -47.8,-135.56 c -2.89,-8.2 -12.12,-13.74 -20.57,-12.33"
         style="fill:#87551c;fill-opacity:1;fill-rule:nonzero;stroke:none"
         id="path470" /><path
         d="m 2644.92,3217.07 c -2.14,0.35 -4.06,1.29 -5.52,2.77 l -92.47,93.87 c -4.1,4.16 -3.22,11.21 1.98,15.76 5.18,4.55 12.71,4.84 16.81,0.69 l 87.85,-89.16 145.39,50.62 c 6.44,2.26 12.85,-0.56 14.24,-6.31 1.41,-5.74 -2.7,-12.21 -9.17,-14.46 l -152.69,-53.17 c -2.18,-0.76 -4.39,-0.95 -6.42,-0.61"
         style="fill:#87551c;fill-opacity:1;fill-rule:nonzero;stroke:none"
         id="path472" /><path
         d="m 2761.93,3370.7 7.05,21.16 c 2.36,7.08 10.16,11.84 17.43,10.64 l 136.38,-22.61 -12.03,-36.14 -148.83,26.95"
         style="fill:#f8a62d;fill-opacity:1;fill-rule:nonzero;stroke:none"
         id="path474" /></g></g></svg>
