<?xml version="1.0" encoding="UTF-8" standalone="no"?>
<!-- Created with Inkscape (http://www.inkscape.org/) -->

<svg
   version="1.1"
   id="svg2"
   xml:space="preserve"
   width="1496"
   height="1496"
   viewBox="0 0 1496 1496"
   sodipodi:docname="09696864dbf55a11d7a213b89e855881.eps"
   xmlns:inkscape="http://www.inkscape.org/namespaces/inkscape"
   xmlns:sodipodi="http://sodipodi.sourceforge.net/DTD/sodipodi-0.dtd"
   xmlns="http://www.w3.org/2000/svg"
   xmlns:svg="http://www.w3.org/2000/svg"><defs
     id="defs6" /><sodipodi:namedview
     id="namedview4"
     pagecolor="#ffffff"
     bordercolor="#666666"
     borderopacity="1.0"
     inkscape:pageshadow="2"
     inkscape:pageopacity="0.0"
     inkscape:pagecheckerboard="0" /><g
     id="g8"
     inkscape:groupmode="layer"
     inkscape:label="ink_ext_XXXXXX"
     transform="matrix(1.3333333,0,0,-1.3333333,0,1496)"><g
       id="g10"
       transform="scale(0.1)"><path
         d="M 11220,0 H 0 V 11220 H 11220 V 0"
         style="fill:#F1F1F7;fill-opacity:1;fill-rule:nonzero;stroke:none"
         id="path12" />

         <!-- <path
         d="m 1679.1,5496.55 1822.76,675.67 -363.2,312 278.19,371.11 -366.53,27.78 11.92,569.84 c 0,0 -581.89,-468.17 -813.2,-861.69 -231.29,-393.52 -520.6,-818.33 -569.94,-1094.71"
         style="fill:#16d3c1;fill-opacity:1;fill-rule:nonzero;stroke:none"
         id="path14" /> -->
         <!-- <path
         d="M 5885.39,7472.92 7070.11,7158.27 5617.44,7556.15 Z"
         style="fill:#db6aad;fill-opacity:1;fill-rule:nonzero;stroke:none"
         id="path16" /><path
         d="m 8691.79,6728.62 c 0.56,1.85 2.95,14.27 1.42,49.14 0.56,-23.48 -0.29,-39.47 -1.42,-49.14"
         style="fill:#db6aad;fill-opacity:1;fill-rule:nonzero;stroke:none"
         id="path18" /><path
         d="m 8524.77,7503.55 -476.35,129.16 485.64,-139.88 c -6.11,9.93 -9.29,10.72 -9.29,10.72"
         style="fill:#db6aad;fill-opacity:1;fill-rule:nonzero;stroke:none"
         id="path20" /><path
         d="m 5771.27,7741.87 c -105.65,-52.53 -167.37,-85.74 -167.37,-85.74 l -27.98,-27.95 v 0 c 0,0 72.88,45.22 195.35,113.69"
         style="fill:#db6aad;fill-opacity:1;fill-rule:nonzero;stroke:none"
         id="path22" /><path
         d="m 8524.77,8324.7 -65.41,247.03 c 15.1,-57.96 43.27,-170.08 65.04,-278.42 l 0.37,31.39"
         style="fill:#db6aad;fill-opacity:1;fill-rule:nonzero;stroke:none"
         id="path24" /><path
         d="m 1304.21,4445.99 248.45,11.85 z"
         style="fill:#db6aad;fill-opacity:1;fill-rule:nonzero;stroke:none"
         id="path26" /><path
         d="m 4597.67,7854.81 c 0,0 -401.58,-1286.98 -592.76,-1901.07 l 592.76,1901.06 v 0.01"
         style="fill:#db6aad;fill-opacity:1;fill-rule:nonzero;stroke:none"
         id="path28" /><path
         d="m 3905.3,5634.21 c -5.88,-7.17 -373.37,-138.69 -826.13,-298.8 l 818.12,273.11 8.01,25.69"
         style="fill:#db6aad;fill-opacity:1;fill-rule:nonzero;stroke:none"
         id="path30" /><path
         d="m 8488.98,5457.52 -95.92,28.2 -340.64,-197.01 -113.89,397.26 -77.21,-22.76 -300.82,111.58 -26.88,-13.08 -173.53,47.83 L 6079.5,4465.65 4936.39,3812.43 h -0.03 0.03 l 1143.11,653.22 -801.91,-977.03 -622.32,-871.75 667.84,255.38 3284.59,1140.04 -100.95,190.13 1421.76,641.75 c 0,0 -1392.59,617.31 -1439.53,613.35"
         style="fill:#db6aad;fill-opacity:1;fill-rule:nonzero;stroke:none"
         id="path32" /><path
         d="m 1269.89,4731.42 -19.8,-1.6 54.09,-283.68 -37.41,284.24 3.12,1.04"
         style="fill:#db6aad;fill-opacity:1;fill-rule:nonzero;stroke:none"
         id="path34" /> -->
         <!-- <path
         d="m 1552.66,4457.84 481.2,-757.5 2902.5,112.09 -2899.63,-91.61 -484.07,737.02"
         style="fill:#f4e9d7;fill-opacity:1;fill-rule:nonzero;stroke:none"
         id="path36" /><path
         d="m 4004.91,5953.74 -99.61,-319.53 c 0.04,0.04 0.56,0.25 0.56,0.25 0.86,3.54 40.06,129.73 99.05,319.28"
         style="fill:#f4e9d7;fill-opacity:1;fill-rule:nonzero;stroke:none"
         id="path38" /><path
         d="m 5340.95,5987.33 768.01,80.2 1447.17,106 -2206.98,-157.46 -751.48,1838.74 v -0.01 l 213.22,-561.32 530.06,-1306.15"
         style="fill:#f4e9d7;fill-opacity:1;fill-rule:nonzero;stroke:none"
         id="path40" /><path
         d="m 3079.17,5335.41 -1809.28,-603.99 115.62,9.21 c 0,0 958.75,334.91 1693.66,594.78"
         style="fill:#f4e9d7;fill-opacity:1;fill-rule:nonzero;stroke:none"
         id="path42" /><path
         d="m 1304.21,4445.99 v 0 l -0.03,0.15 z"
         style="fill:#f4e9d7;fill-opacity:1;fill-rule:nonzero;stroke:none"
         id="path44" /><path
         d="m 7512.18,5792.71 48.32,-17.92 123.88,60.27 -128.25,338.47 119.21,-334.96 -163.16,-45.86"
         style="fill:#f4e9d7;fill-opacity:1;fill-rule:nonzero;stroke:none"
         id="path46" /><path
         d="m 6079.5,4465.65 1280.59,1343.89 173.53,-47.83 26.88,13.08 -48.32,17.92 163.16,45.86 -119.21,334.96 -1447.17,-106 -768.01,-80.2 -530.06,1306.15 -213.22,561.32 -592.76,-1901.06 c -58.99,-189.55 -98.19,-315.74 -99.05,-319.24 0,0 -0.52,-0.25 -0.56,-0.29 l -8.01,-25.69 -818.12,-273.11 C 2344.26,5075.54 1385.51,4740.63 1385.51,4740.63 l -115.62,-9.21 -3.12,-1.04 37.41,-284.24 0.03,-0.15 248.45,11.85 484.07,-737.02 2899.63,91.61 h 0.03 l 1143.11,653.22"
         style="fill:#f4e9d7;fill-opacity:1;fill-rule:nonzero;stroke:none"
         id="path48" /><path
         d="m 8448.74,8611.87 10.62,-40.14 c -6.52,25.1 -10.62,40.14 -10.62,40.14"
         style="fill:#2ecaef;fill-opacity:1;fill-rule:nonzero;stroke:none"
         id="path50" /><path
         d="m 8512.27,8045.79 40.66,5.79 c 5.71,48.16 -8.76,143.32 -28.53,241.73 l -2.84,-239.23 -9.29,-8.29"
         style="fill:#2ecaef;fill-opacity:1;fill-rule:nonzero;stroke:none"
         id="path52" /><path
         d="m 8448.74,8611.87 c 0,0 -492.04,-62.31 -1289.96,-278.69 -556.28,-150.85 -1105.43,-433.64 -1387.51,-591.31 416.86,207.29 1551.89,730.39 2605.17,844.12 l 72.3,25.88"
         style="fill:#2ecaef;fill-opacity:1;fill-rule:nonzero;stroke:none"
         id="path54" /> -->
         <!-- <path
         d="M 7070.11,7158.27 8689.3,6714.78 c 0,0 1.34,3.91 2.49,13.84 -0.08,-0.2 -0.26,-0.98 -0.26,-0.98 l -1621.42,430.63"
         style="fill:#2ecaef;fill-opacity:1;fill-rule:nonzero;stroke:none"
         id="path56" /><path
         d="m 8693.21,6777.76 c -1.21,50.46 -9.37,137.19 -38.22,283.14 -56.13,283.77 -115.37,430.32 -115.37,430.32 l -5.56,1.61 c 13.72,-22.29 44.02,-95.89 98.9,-347.2 45.85,-209.94 57.91,-315.04 60.25,-367.87"
         style="fill:#2ecaef;fill-opacity:1;fill-rule:nonzero;stroke:none"
         id="path58" /><path
         d="m 5617.44,7556.15 -41.53,72.02 0.01,0.01 -0.01,-0.01 41.53,-72.02"
         style="fill:#2ecaef;fill-opacity:1;fill-rule:nonzero;stroke:none"
         id="path60" /><path
         d="m 8454.18,8024.9 -405.76,-392.19 463.85,413.08 -14.63,-2.07 -43.46,-18.82"
         style="fill:#2ecaef;fill-opacity:1;fill-rule:nonzero;stroke:none"
         id="path62" /><path
         d="m 5575.92,7628.18 v 0 l -0.01,-0.01 z"
         style="fill:#2ecaef;fill-opacity:1;fill-rule:nonzero;stroke:none"
         id="path64" /><path
         d="m 8497.64,8043.72 -2921.73,-415.55 41.53,-72.02 1452.67,-397.88 1621.42,-430.63 c 0,0 0.18,0.78 0.26,0.98 1.13,9.67 1.98,25.66 1.42,49.14 -2.34,52.83 -14.4,157.93 -60.25,367.87 -54.88,251.31 -85.18,324.91 -98.9,347.2 l -485.64,139.88 405.76,392.19 43.46,18.82"
         style="fill:#f4e9d7;fill-opacity:1;fill-rule:nonzero;stroke:none"
         id="path66" /><path
         d="m 8497.64,8043.72 14.63,2.07 9.29,8.29 z"
         style="fill:#2ecaef;fill-opacity:1;fill-rule:nonzero;stroke:none"
         id="path68" /><path
         d="m 8459.36,8571.73 -10.62,40.14 -72.3,-25.88 C 7323.16,8472.26 6188.13,7949.16 5771.27,7741.87 5648.8,7673.4 5575.95,7628.2 5575.95,7628.2 l -0.04,-0.03 2921.73,415.55 23.92,10.36 2.84,239.23 c -21.77,108.34 -49.94,220.46 -65.04,278.42"
         style="fill:#f4e9d7;fill-opacity:1;fill-rule:nonzero;stroke:none"
         id="path70" /><path
         d="M 7360.46,5840.21 C 6373.49,4854.31 5462.28,3791.57 4657.12,2651.88 c -8.1,-11.46 12.5,-23.82 20.79,-12.67 831.2,1117.76 1733.37,2179.81 2718.6,3164.97 21.6,21.6 -15.6,56.45 -36.05,36.03"
         style="fill:#16d3c1;fill-opacity:1;fill-rule:nonzero;stroke:none"
         id="path72" /><path
         d="m 6229.73,4196.59 c 539.82,512.94 1108.53,986.5 1684.12,1457.94 4.27,3.49 5.83,7.52 6.06,11.53 30.73,-127.52 67.37,-257.75 115.49,-379.53 0.2,-0.52 0.61,-0.85 0.84,-1.35 -1004.71,-653.87 -1967.9,-1378.79 -2865.92,-2173.94 344.63,369.72 691.86,736.08 1059.41,1085.35 z m 3689.38,645.86 C 9101.63,4502.13 7896.77,3994.75 7079.89,3653.02 6310.71,3331.25 5520.44,3036.32 4766.82,2677.73 c 51.65,55.41 103.29,110.8 154.81,166.24 1078.72,942.06 2213.19,1810.76 3418.64,2587.15 22.11,14.25 -1.36,48.43 -21.72,35.55 -82.65,-52.3 -164.94,-105.22 -247.04,-158.48 -34.11,127.99 -82.18,255.83 -132.99,377.78 -5.15,12.37 -26.28,11.59 -22.59,-3.98 0.49,-2.06 1.06,-4.14 1.55,-6.21 -6.27,10.46 -22.15,17.49 -33.73,8.84 -2.09,-1.57 -4.14,-3.21 -6.23,-4.77 -0.09,0.03 -0.15,0.11 -0.25,0.14 -167.83,57.3 -339.49,109.34 -512.06,150.12 -15.14,3.57 -18.58,-15.23 -5.1,-20.57 155.24,-61.5 315.46,-114.34 475.89,-161.42 -582.72,-439.6 -1134.1,-930.4 -1661.3,-1434.04 -479.9,-458.42 -956.14,-934.1 -1382.36,-1445.19 -52.71,-48.86 -105.41,-97.71 -157.61,-147.06 -3.18,-3.02 -3.51,-6.57 -2.45,-9.8 -8.22,-9.95 6.9,-26.43 20.57,-21.69 3.52,1.24 7,2.52 10.52,3.75 5.82,-6.38 16.29,-9.84 22.43,-3.29 5.22,5.61 10.42,11.22 15.65,16.81 817.57,288.29 1613.53,655.53 2414.12,987.01 402.02,166.44 897.24,374.05 1394.01,582.53 8.23,-26.55 18.7,-52.64 28.82,-78.18 16.38,-41.36 32.58,-87.42 58.23,-123.89 17.5,-24.87 64.67,-19.45 55.27,17.32 -11.09,43.39 -36,84.93 -57.13,124.24 -14,26.01 -28.19,52.6 -44.38,77.64 500.65,210.12 1000.31,420.03 1405.2,588.48 40.98,17.05 0.68,75.15 -36.48,59.69"
         style="fill:#16d3c1;fill-opacity:1;fill-rule:nonzero;stroke:none"
         id="path74" /> -->
         <!-- <path
         d="m 9934.5,4864.25 c -490.46,217.92 -982.8,442.95 -1485.05,632.24 -12.14,4.57 -19.29,-13.09 -7.84,-18.78 482.93,-240.5 985.02,-449.51 1480.85,-661.9 33.65,-14.4 42.72,34.81 12.04,48.44"
         style="fill:#16d3c1;fill-opacity:1;fill-rule:nonzero;stroke:none"
         id="path76" /><path
         d="M 8620,4044.62 C 7283.54,3590.11 6184.57,3208.47 4852.45,2741.24 c -12.7,-4.44 -0.26,-21.59 11,-17.99 1347.01,432.21 2445.62,824.25 3788.45,1269.15 36.43,12.06 1.27,63.5 -31.9,52.22"
         style="fill:#16d3c1;fill-opacity:1;fill-rule:nonzero;stroke:none"
         id="path78" /><path
         d="m 8552.95,8051.57 c 7.34,187.08 -37.73,380 -99.13,555.4 -0.95,2.71 -2.95,4.23 -5.09,4.9 1.94,9.7 -6.14,22.17 -18.23,20.74 -216.05,-25.47 -856.66,-179.66 -1065.74,-238.16 -203.62,-56.94 -404.84,-122.17 -603.15,-195.54 -404.73,-149.74 -796.15,-332.27 -1170.78,-546.44 -10.62,-6.07 -0.38,-24.53 10.33,-18.6 379.78,210.15 775.48,391.75 1183.87,538.91 198.22,71.41 399.27,135.21 602.46,190.98 207.79,57.03 843.81,182.34 1051.51,238.05 0.99,0.27 1.59,0.82 2.43,1.2 55.52,-181.11 71.13,-360.92 80.13,-548.95 0.96,-20.21 30.5,-24.94 31.39,-2.49"
         style="fill:#16d3c1;fill-opacity:1;fill-rule:nonzero;stroke:none"
         id="path80" /><path
         d="m 5912.22,7561.5 c 393.59,-18.6 788.22,-25.96 1181.74,-39.41 481.74,-16.45 963.47,-34.15 1445.26,-49.16 19.18,-0.61 16.46,29.51 -0.98,30.14 -481.68,17.34 -963.47,31.98 -1445.19,47.87 -481.26,15.9 -963.55,41.36 -1445.08,43.58 -3.03,0.02 -5.18,-1.11 -6.54,-2.84 -5.13,0.87 -10.27,1.79 -15.4,2.66 -5.89,0.99 -8.45,-2.72 -8.59,-7.23 98.45,-1.94 196.75,-11.94 294.78,-25.61"
         style="fill:#16d3c1;fill-opacity:1;fill-rule:nonzero;stroke:none"
         id="path82" /><path
         d="m 8503.93,8067.75 c -488.49,-71.4 -976.88,-143.33 -1465.27,-215.26 -487.63,-71.82 -977.59,-137.22 -1462.75,-224.32 -11.96,-2.13 -5.71,-20.53 5.31,-19.25 490.35,56.87 979.01,135.72 1467.3,207.85 468.58,69.19 937.16,138.45 1405.68,208.12 -136.1,-110.57 -267.35,-235.34 -391.22,-357.56 -11.29,-11.14 6.25,-31.04 18.76,-20.35 140.74,120.31 285.04,248.69 412.59,383.86 6.34,0.95 12.67,1.87 18.99,2.8 20.94,3.13 10.39,37.01 -9.39,34.11"
         style="fill:#16d3c1;fill-opacity:1;fill-rule:nonzero;stroke:none"
         id="path84" /><path
         d="m 8033.06,7656.13 c -809.96,-11.75 -1620.22,-49.67 -2429.76,-77.71 -20.53,-0.71 -17.66,-33.03 1.04,-32.38 809.53,28.03 1620.5,46.25 2429.35,90.55 12.25,0.68 10.78,19.71 -0.63,19.54"
         style="fill:#16d3c1;fill-opacity:1;fill-rule:nonzero;stroke:none"
         id="path86" /><path
         d="m 8527.35,7509.23 c -162.05,46.36 -329.76,99.93 -496.32,126.41 -9.95,1.58 -8.83,-13.44 -1.47,-16.31 156.98,-61.1 327.78,-100.02 490.82,-142.13 21.38,-5.54 26.15,26.54 6.97,32.03"
         style="fill:#16d3c1;fill-opacity:1;fill-rule:nonzero;stroke:none"
         id="path88" /><path
         d="m 8691.54,6727.63 -1553.25,426.23 c -253.78,69.63 -507.76,138.51 -761.67,207.7 -253.83,69.2 -507.86,146.62 -765.14,201.85 -9.99,2.16 -9.67,-14.4 -1.53,-17.13 249.12,-83.31 506.71,-145.96 759.95,-215.62 258.82,-71.2 517.59,-142.68 776.55,-213.43 l 1538.4,-420.31 c 20.49,-5.58 25.07,25.67 6.69,30.71"
         style="fill:#16d3c1;fill-opacity:1;fill-rule:nonzero;stroke:none"
         id="path90" /><path
         d="m 8715.35,6744.28 c -17.21,240.91 -71.22,478.37 -152.5,705.41 -2.78,7.76 -14.46,6.3 -12.01,-2.49 63.82,-229.94 103.94,-462.88 128.43,-700.06 2.34,-22.73 37.94,-28.84 36.08,-2.86"
         style="fill:#16d3c1;fill-opacity:1;fill-rule:nonzero;stroke:none"
         id="path92" /><path
         d="m 3116.21,6507.54 c -0.26,-0.31 -0.27,-0.63 -0.5,-0.94 -250.09,-153.99 -490.07,-327.97 -733.33,-492.31 -168.47,-113.81 -338.45,-225.88 -506.4,-340.75 462.88,407.37 954.13,778.21 1481.27,1100.09 -83.41,-85.75 -163.84,-175.4 -241.04,-266.09 z m 319.11,344.99 c -116.45,17.77 -235.92,34.19 -353.52,41.49 -9.95,0.61 -8.05,-13.25 0.17,-15.03 98.9,-21.21 200.86,-36.16 301.7,-49.09 -593.61,-355.82 -1153.7,-773.46 -1651.01,-1255.56 -14.28,-10.01 -28.47,-20.14 -42.68,-30.21 8.4,19.36 16.9,38.69 25.38,58 387.43,484.73 842.03,911.42 1353.91,1263.47 19.15,13.17 -5.04,40.85 -22.43,28.84 C 2557.27,6556.27 2119.97,6148.97 1751.32,5683 c 142.69,312.91 310.66,612.77 512.15,892.84 229.85,319.51 497.28,600.13 786.03,865.45 -13.5,-170.11 -17.44,-342.37 -20.42,-512.92 -0.35,-20.03 34.51,-28.55 35.21,-7.03 5.73,173.92 10.47,349.6 5.39,523.57 -0.12,4.17 -3.51,6.92 -7.44,8.04 10.04,9.2 20.05,18.41 30.14,27.56 11.96,10.87 -9.31,30.49 -20.91,21.09 -606.05,-490.85 -1091.98,-1174.04 -1384.85,-1898.84 -10.27,-37.87 -21.67,-75.51 -33.44,-113.08 8.62,2.37 17.25,4.67 25.92,6.87 15.48,14.14 30.96,28.26 46.47,42.35 228.17,145.77 451.38,299.79 676.46,450.11 245.35,163.83 498.52,320.85 736.63,495.21 103.67,-112.1 222.44,-217.02 338.68,-315.47 16.43,-13.93 36.85,7.45 20.8,22.85 -108.8,104.55 -224.95,211.46 -345.83,302.5 2.06,1.52 4.14,2.97 6.19,4.48 6.67,4.94 6.58,11.67 3.36,17.04 88.4,94.93 174.93,193.28 255.64,294.77 1.03,0.63 2.05,1.25 3.09,1.88 4.6,2.76 6.42,6.41 6.65,10.2 0.46,0.57 0.92,1.12 1.37,1.68 0.97,-0.12 1.94,-0.24 2.92,-0.36 20.78,-2.55 23.69,25.7 3.79,28.74"
         style="fill:#f4e9d7;fill-opacity:1;fill-rule:nonzero;stroke:none"
         id="path94" /> -->
         <path
         d="m 3492.52,6185.78 c -309.01,-128.82 -621.53,-249.18 -936.47,-362.71 -295.06,-106.36 -603.64,-189.13 -894.54,-306.93 -2.7,-8.81 -5.46,-17.62 -8.21,-26.43 44.4,12.16 89.64,22.28 134.66,31.91 265.61,70.84 527.65,173.99 783.8,265.74 315.27,112.93 627.46,233.9 937.89,359.51 26.63,10.77 6.61,48.81 -17.13,38.91"
         style="fill:#f4e9d7;fill-opacity:1;fill-rule:nonzero;stroke:none"
         id="path96" /><path
         d="m 7596.56,6126.92 c 6.18,4.33 12.52,8.4 18.28,13.39 6.14,4.5 12.3,7.3 18.44,9.43 1.3,29.05 2.11,58.08 1.73,87.05 -0.11,7.98 -14.01,16.61 -17.23,5.99 -12.14,-39.87 -22.3,-80.41 -31.1,-121.37 3.31,1.8 6.55,3.74 9.88,5.51"
         style="fill:#16d3c1;fill-opacity:1;fill-rule:nonzero;stroke:none"
         id="path98" /><path
         d="m 1298.13,4626.54 c -0.23,0.33 -0.46,0.62 -0.67,0.94 -12.03,17.48 -14.4,35.37 -10.67,51.45 -4.76,17.94 -10.85,35.37 -20.03,51.45 -3.85,6.77 -14.73,9.01 -16.67,-0.56 -8.04,-39.78 2.6,-82.53 8.43,-122.28 6.83,-46.55 10.97,-94.34 23.29,-139.74 7.05,-25.93 48.99,-30.82 46.24,1.51 -3.99,46.91 -16.78,93.53 -26.4,139.62 -1.23,5.82 -2.39,11.71 -3.52,17.61"
         style="fill:#16d3c1;fill-opacity:1;fill-rule:nonzero;stroke:none"
         id="path100" /><path
         d="m 3850.92,5578.2 c -53.08,-160.09 -106.44,-320.85 -145.14,-483.89 -2.48,-10.47 3.44,-19.58 12.02,-25.25 -777.62,-103.01 -1554.96,-211.67 -2329.39,-331.37 821.73,275.55 1647.85,544.85 2462.51,840.51 z m 1025.11,-359.24 c -373.56,-47.33 -747.32,-95.57 -1121.03,-145 0.53,0.97 1.33,1.55 1.76,2.65 86.59,226.08 144.96,466.08 214.86,697.87 70.35,233.26 140.49,466.59 210.6,699.94 140.23,466.82 276.17,935.11 418.02,1401.41 3.04,9.99 -13.42,18.71 -16.72,8.12 -146.97,-471.28 -300.04,-940.84 -448.67,-1411.64 -73.21,-231.87 -146.35,-463.77 -219.31,-695.72 -15.66,-49.81 -32.01,-99.66 -48.49,-149.52 -4.54,1.87 -9.58,2.63 -14.96,0.84 -840.4,-278.53 -1673.05,-586.46 -2506.27,-885.8 -5.65,-2.03 -5.99,-7.37 -3.68,-11.5 -12.12,-1.88 -24.27,-3.67 -36.37,-5.56 -11.66,-1.81 -7.91,-18.64 2.8,-17.41 1192.58,138.31 2385.01,303.72 3573.19,475.72 23.99,3.49 16.04,38.37 -5.73,35.6"
         style="fill:#16d3c1;fill-opacity:1;fill-rule:nonzero;stroke:none"
         id="path102" /><path
         d="m 5578.38,5460.62 c -143.32,393.66 -309.54,780.35 -464.8,1169.47 -154.35,386.86 -293.68,793 -484.38,1163.52 -3.87,7.51 -20.13,8.27 -16.98,-2.76 112.07,-393.22 285.98,-776.6 435.26,-1157.02 155.77,-397 302.74,-799.56 470.97,-1191.45 15.91,-37.05 75.21,-23.73 59.93,18.24"
         style="fill:#16d3c1;fill-opacity:1;fill-rule:nonzero;stroke:none"
         id="path104" /><path
         d="m 4898.51,5246.4 c -213.58,861.75 -295.58,1721.72 -300.84,2608.41 -0.06,9.85 -16.56,15.35 -17.37,3.78 -60.47,-869.21 47.57,-1771.2 262.95,-2613.97 8.13,-31.81 64.24,-34.51 55.26,1.78"
         style="fill:#16d3c1;fill-opacity:1;fill-rule:nonzero;stroke:none"
         id="path106" /><path
         d="m 7630.9,6225.8 c -34.96,-12.37 -69.82,-25.09 -104.75,-37.57 -735.65,-48.44 -1475.48,-95.35 -2207.82,-178.08 -16.88,-1.9 -11.18,-25.34 3.99,-24.76 673.98,25.38 1349.68,81.07 2022.54,137.8 -378.1,-136.58 -754.93,-276.82 -1132.52,-414.7 -229.17,-83.7 -458.02,-168.32 -686.72,-253.28 -225.87,-83.91 -470.99,-153.65 -683.68,-267.61 -12.53,-6.71 1.43,-22.97 12.02,-20.7 235.71,50.46 467.87,153.72 694.71,234.72 237.07,84.64 473.99,169.69 710.58,255.65 446.95,162.37 895.3,321.41 1340.91,487.47 4.69,0.38 9.41,0.78 14.1,1.18 8.91,0.74 14.29,4.93 17.17,10.39 8.44,3.14 16.91,6.2 25.34,9.36 38.98,14.58 9.84,72.79 -25.87,60.13"
         style="fill:#16d3c1;fill-opacity:1;fill-rule:nonzero;stroke:none"
         id="path108" /><path
         d="m 4905.41,5138.63 c 0.03,9.72 -16.36,14.91 -16.96,3.7 -22.23,-413.76 -55.89,-834.27 -47.51,-1248.67 0.46,-23.26 39.31,-36.85 41.46,-9.01 32.18,414.69 21.81,838.18 23.01,1253.98"
         style="fill:#16d3c1;fill-opacity:1;fill-rule:nonzero;stroke:none"
         id="path110" /><path
         d="m 2009.32,3823.35 c -153.97,219.1 -309.29,445.87 -476,659.43 -8.89,-17.77 -26.64,-28.6 -46.26,-32.11 153.27,-223 322.72,-439.07 485.06,-651.57 18.51,-24.24 55.85,-2.29 37.2,24.25"
         style="fill:#16d3c1;fill-opacity:1;fill-rule:nonzero;stroke:none"
         id="path112" /><path
         d="m 4856.3,3842.99 c -460.2,-15.39 -920.38,-31.26 -1380.54,-47.62 -459.01,-16.3 -920.99,-21.91 -1378.98,-57.31 -19.86,-1.54 -12.63,-28.39 4.62,-28.64 460.55,-6.56 923.18,16.49 1383.55,28.83 460.69,12.38 921.36,25.22 1382.02,38.55 45.33,1.31 29.82,67.54 -10.67,66.19"
         style="fill:#16d3c1;fill-opacity:1;fill-rule:nonzero;stroke:none"
         id="path114" /><path
         d="m 6227.81,4566.86 c 7.54,8.63 15.39,17.04 23.06,25.54 -11.04,-6.63 -22.06,-13.37 -33.11,-19.98 -410.72,-245.72 -817.29,-498.53 -1227.84,-744.33 -9.37,-5.59 2.01,-19.71 10.89,-14.56 375.68,217.81 754.65,430.21 1130.98,647.07 29.98,37.15 61.64,72.86 96.02,106.26"
         style="fill:#16d3c1;fill-opacity:1;fill-rule:nonzero;stroke:none"
         id="path116" /><path
         d="m 7684.38,5835.06 c -25.2,126.36 -66.12,255.42 -115.26,374.24 -3.54,8.56 -17.68,7.81 -16.63,-2.72 12.18,-122.26 36.92,-247.25 72.21,-365.38 -54.42,-16.27 -108.13,-34.23 -161,-54.36 7.35,-5.66 13.64,-12.64 18.36,-20.65 7.03,1.34 14.45,1.47 22.1,-0.02 10.3,-2 19.91,-4.2 29.17,-6.66 0.09,0.73 0.2,1.47 0.29,2.2 44.56,11.72 88.86,24.64 132.95,38.77 9.58,3.06 14.01,9.5 14.77,16.69 3.09,4.55 4.53,10.46 3.04,17.89"
         style="fill:#16d3c1;fill-opacity:1;fill-rule:nonzero;stroke:none"
         id="path118" /><path
         d="m 5108.28,4773.35 c -13.78,58.25 -40.95,113.48 -64.09,168.56 -26.09,62.13 -50.12,126.16 -82.39,185.38 -5.82,10.67 -29.05,12.56 -24.91,-4.08 14.32,-57.56 36.68,-112.86 56.77,-168.6 22.54,-62.53 41.81,-129.79 74.24,-187.85 9.55,-17.1 46.83,-20.65 40.38,6.59"
         style="fill:#16d3c1;fill-opacity:1;fill-rule:nonzero;stroke:none"
         id="path120" /><path
         d="m 7191.77,5632.67 c 8.29,10.46 16.85,20.59 25.59,30.54 -697.12,-287.26 -1400.51,-565.11 -2085.9,-878.03 -10.82,-4.95 -2.98,-21.24 7.5,-17.45 669.21,242.61 1328.01,518.69 1987.98,787.32 20.81,27 42.59,53.08 64.83,77.62"
         style="fill:#16d3c1;fill-opacity:1;fill-rule:nonzero;stroke:none"
         id="path122" /><path
         d="m 4774.32,5129.51 c -36.17,-128.97 -71.41,-263.54 -88.55,-396.39 -2.81,-21.77 36.75,-39.58 42.92,-14.89 32.88,131.37 49.63,270.61 63.25,405.17 0.9,8.82 -14.75,16.35 -17.62,6.11"
         style="fill:#16d3c1;fill-opacity:1;fill-rule:nonzero;stroke:none"
         id="path124" /><path
         d="m 4675.01,4759.98 c -28.44,2.76 -56.88,5.53 -85.3,8.29 -14.74,1.43 -23.36,-6.37 -26.39,-16.13 -526.33,-43.13 -1052.05,-97.91 -1577.96,-145.7 -559.53,-50.86 -1124.39,-84.51 -1681.15,-160.45 -12.3,-1.68 -8.28,-18.63 2.94,-18.19 562.12,22.33 1124.79,87.4 1685.29,134.75 561.23,47.41 1123.69,86.81 1684.28,140.97 33.67,3.25 30.44,53.33 -1.71,56.46"
         style="fill:#16d3c1;fill-opacity:1;fill-rule:nonzero;stroke:none"
         id="path126" /><path
         d="m 3760.06,5256.46 c -432.57,-105.95 -874.6,-224.58 -1295.85,-369.19 -12.44,-4.28 -3.08,-20.97 7.99,-18.57 435.95,94.76 876.27,221.6 1301.91,355.1 21.87,6.85 5.55,37.46 -14.05,32.66"
         style="fill:#16d3c1;fill-opacity:1;fill-rule:nonzero;stroke:none"
         id="path128" /><path
         d="m 7072.29,6017.96 c -261.24,-39.04 -520.69,-98.97 -780.01,-149.33 -271.05,-52.64 -548.19,-94.53 -814.74,-167.16 -16.29,-4.44 -6.71,-29.46 8.12,-27.67 261.99,31.46 522.14,92.56 781.03,142.92 271.92,52.92 548.08,96.19 817.37,161.04 23.72,5.72 9.72,43.4 -11.77,40.2"
         style="fill:#16d3c1;fill-opacity:1;fill-rule:nonzero;stroke:none"
         id="path130" /><path
         d="m 2055.25,3706.89 c -3.76,13.85 -10.79,24.41 -20.03,35.39 -5.2,6.15 -19.75,5.66 -17.19,-5.28 3.16,-13.49 7.18,-25.73 15.81,-36.66 6.24,-7.87 25.03,-6.8 21.41,6.55"
         style="fill:#16d3c1;fill-opacity:1;fill-rule:nonzero;stroke:none"
         id="path132" /><path
         d="m 4835.93,5012.69 c 3.45,44.28 5.17,88.4 3.38,131.92 -0.4,9.77 -16.72,14.32 -20.61,4.52 -10,-25.15 -18.48,-51.19 -26.33,-77.57 -9.54,-0.31 -17.79,-5.61 -21.15,-18.57 -26.59,-102.74 -37.01,-212.7 -49.77,-318.35 -535.26,-25.44 -1070.22,-61.05 -1603.74,-111.13 -267.95,-25.17 -535.78,-52.77 -803.01,-84.64 -253.26,-30.22 -535.48,-39.74 -779.32,-117.55 -16.41,-5.24 -5.7,-26.1 7.76,-26.54 263.95,-8.57 542.12,51.42 804.58,79.97 267.7,29.12 535.55,56 803.76,79.81 536.37,47.6 1073.43,84.88 1611.33,109.96 21.55,0.99 30.38,15.32 29.82,30.91 1.22,2.93 2.24,6.12 2.76,9.84 15.77,100.63 35.91,205.32 40.54,307.42"
         style="fill:#16d3c1;fill-opacity:1;fill-rule:nonzero;stroke:none"
         id="path134" /><path
         d="m 5085.22,4763.86 c -31.95,125.17 -99.23,263.65 -163.75,375.25 -8.78,15.22 -42.29,19.01 -36.61,-5.97 28.07,-123.31 73.3,-269.22 133.92,-380.1 15.53,-28.41 77.77,-33.51 66.44,10.82"
         style="fill:#16d3c1;fill-opacity:1;fill-rule:nonzero;stroke:none"
         id="path136" /><path
         d="m 7607.78,5725.72 c 24.16,26.52 -8.22,79.9 -45.44,64.12 -18.94,-8.02 -37.92,-15.95 -56.85,-23.96 39.93,-7.82 70.95,-18.16 102.29,-40.16"
         style="fill:#16d3c1;fill-opacity:1;fill-rule:nonzero;stroke:none"
         id="path138" /><path
         d="m 7092.62,5508.02 c 30.26,44.1 64.25,86.15 99.15,124.65 0.5,0.62 1.03,1.2 1.52,1.83 -299.6,-125.54 -599.56,-250.19 -898.76,-376.65 -207.6,-87.75 -415.18,-175.56 -622.26,-264.52 -197.65,-84.91 -414.94,-157.41 -596.2,-274.47 -10.38,-6.7 0.89,-20.46 10.59,-18.25 217.09,49.58 427.16,155.43 633.21,239.12 208.84,84.83 417.15,170.94 625.5,257 249.38,103.01 498.26,207.28 747.25,311.29"
         style="fill:#16d3c1;fill-opacity:1;fill-rule:nonzero;stroke:none"
         id="path140" /></g></g></svg>