<?xml version="1.0" encoding="UTF-8" standalone="no"?>
<!-- Created with Inkscape (http://www.inkscape.org/) -->

<svg
   version="1.1"
   id="svg2"
   xml:space="preserve"
   width="566.92932"
   height="566.92798"
   viewBox="0 0 566.92932 566.92798"
   sodipodi:docname="8b34d8b3d943283ae364dd1957132f5d.eps"
   xmlns:inkscape="http://www.inkscape.org/namespaces/inkscape"
   xmlns:sodipodi="http://sodipodi.sourceforge.net/DTD/sodipodi-0.dtd"
   xmlns="http://www.w3.org/2000/svg"
   xmlns:svg="http://www.w3.org/2000/svg"><defs
     id="defs6" /><sodipodi:namedview
     id="namedview4"
     pagecolor="#ffffff"
     bordercolor="#666666"
     borderopacity="1.0"
     inkscape:pageshadow="2"
     inkscape:pageopacity="0.0"
     inkscape:pagecheckerboard="0" /><g
     id="g8"
     inkscape:groupmode="layer"
     inkscape:label="ink_ext_XXXXXX"
     transform="matrix(1.3333333,0,0,-1.3333333,0,566.92799)"><g
       id="g10"
       transform="scale(0.1)"><path
         d="M 0,0 H 4251.97 V 4251.96 H 0 Z"
         style="fill:#F1F1F7;fill-opacity:1;fill-rule:nonzero;stroke:none"
         id="path12" /><path
         d="m 2950.95,1416.96 c 0,-40.14 -32.49,-72.67 -72.69,-72.67 H 856.152 c -40.156,0 -72.683,32.53 -72.683,72.67 v 1347.55 c 0,40.14 32.527,72.67 72.683,72.67 H 2878.26 c 40.2,0 72.69,-32.53 72.69,-72.67 V 1416.96"
         style="fill:#2c333f;fill-opacity:1;fill-rule:nonzero;stroke:none"
         id="path14" /><path
         d="m 2938.36,1376.13 c -15.41,-20.71 -41.15,-31.84 -60.1,-31.84 H 856.152 c -40.156,0 -72.683,32.53 -72.683,72.67 v 1347.55 c 0,22.62 10.547,40.43 20.379,50.47 L 2938.36,1376.13"
         style="fill:#1f232b;fill-opacity:1;fill-rule:nonzero;stroke:none"
         id="path16" /><path
         d="m 2818.26,1514.54 c 0,-34.79 -28.53,-62.99 -63.8,-62.99 H 979.941 c -35.234,0 -63.789,28.2 -63.789,62.99 v 1168.25 c 0,34.79 28.555,62.99 63.789,62.99 H 2754.46 c 35.27,0 63.8,-28.2 63.8,-62.99 V 1514.54"
         style="fill:#61c5bd;fill-opacity:1;fill-rule:nonzero;stroke:none"
         id="path18" /><path
         d="m 955.055,2740.81 c 0.011,0.01 0.019,0.01 0.031,0.01 -0.012,0 -0.02,0 -0.031,-0.01 m 0.136,0.06 c 0.028,0.01 0.059,0.02 0.086,0.03 -0.027,-0.01 -0.058,-0.02 -0.086,-0.03 m 0.129,0.05 c 6.852,2.84 14.317,4.52 22.157,4.82 -7.832,-0.3 -15.297,-1.98 -22.157,-4.82 m 22.157,4.82 c 0.066,0 0.132,0 0.199,0 -0.067,0 -0.133,0 -0.199,0 m 0.214,0.01 c 0.063,0 0.125,0 0.188,0 -0.063,0 -0.125,0 -0.188,0 m 0.211,0 c 0.059,0 0.121,0.01 0.18,0.01 -0.062,0 -0.121,-0.01 -0.18,-0.01 m 0.219,0.01 c 0.055,0 0.109,0 0.164,0 -0.055,0 -0.109,0 -0.164,0 m 0.215,0 c 0.051,0.01 0.102,0.01 0.152,0.01 -0.05,0 -0.101,0 -0.152,-0.01 m 0.223,0.01 c 0.043,0 0.089,0 0.136,0 -0.047,0 -0.093,0 -0.136,0 m 0.222,0 c 0.039,0 0.078,0.01 0.117,0.01 -0.039,0 -0.082,-0.01 -0.117,-0.01 m 0.219,0.01 c 0.035,0 0.07,0 0.105,0 -0.035,0 -0.07,0 -0.105,0 m 0.219,0 c 0.031,0 0.062,0 0.094,0 -0.032,0 -0.063,0 -0.094,0 m 0.219,0 c 0.027,0 0.054,0 0.085,0 -0.027,0 -0.058,0 -0.085,0 m 0.238,0 c 0.019,0 0.039,0 0.054,0 -0.015,0 -0.039,0 -0.054,0"
         style="fill:#22262f;fill-opacity:1;fill-rule:nonzero;stroke:none"
         id="path20" /><path
         d="M 2799.57,1470 933.984,2726.46 c 5.926,6.09 13.079,11 21.071,14.35 0.011,0.01 0.019,0.01 0.031,0.01 0.035,0.02 0.07,0.03 0.105,0.05 0.028,0.01 0.059,0.02 0.086,0.03 0.016,0.01 0.028,0.02 0.043,0.02 6.86,2.84 14.325,4.52 22.157,4.82 v 0 c 0.066,0 0.132,0 0.199,0 0.004,0.01 0.012,0.01 0.015,0.01 0.063,0 0.125,0 0.188,0 0.008,0 0.016,0 0.023,0 0.059,0 0.118,0.01 0.18,0.01 0.012,0 0.027,0 0.039,0 0.055,0 0.109,0 0.164,0 0.016,0 0.035,0 0.051,0 0.051,0.01 0.102,0.01 0.152,0.01 0.024,0 0.047,0 0.071,0 0.043,0 0.089,0 0.136,0 0.028,0 0.055,0 0.086,0 0.035,0 0.078,0.01 0.117,0.01 0.032,0 0.071,0 0.102,0 0.035,0 0.07,0 0.105,0 0.04,0 0.075,0 0.114,0 0.031,0 0.062,0 0.094,0 0.042,0 0.082,0 0.125,0 0.027,0 0.058,0 0.085,0 0.051,0 0.102,0 0.153,0 0.015,0 0.039,0 0.054,0 0.071,0 0.141,0 0.211,0 H 2754.46 c 35.27,0 63.8,-28.2 63.8,-62.99 v -346.03 c -15.41,2.14 -31.35,3.31 -47.81,3.31 -34.23,0 -70.62,-5.07 -108.89,-17.04 0,0 -246.11,-86.07 -200.21,-322.18 0,0 142.16,104.17 270.49,104.17 30.26,0 59.75,-5.8 86.42,-20.1 v -570.38 0 c 0,-17.38 -7.13,-33.15 -18.69,-44.54"
         style="fill:#48908c;fill-opacity:1;fill-rule:nonzero;stroke:none"
         id="path22" /><path
         d="M 871.934,1337.07 H 2841.41 L 3105.7,1096.49 H 628.699 l 243.235,240.58"
         style="fill:#222730;fill-opacity:1;fill-rule:nonzero;stroke:none"
         id="path24" /><path
         d="m 628.699,939.102 h 2477 v 157.387 h -2477 z"
         style="fill:#131418;fill-opacity:1;fill-rule:nonzero;stroke:none"
         id="path26" /><path
         d="m 897.09,1313.14 h 1921.17 l 120.1,-117.6 H 783.469 l 113.621,117.6"
         style="fill:#2d3340;fill-opacity:1;fill-rule:nonzero;stroke:none"
         id="path28" /><path
         d="m 1685.8,1180.54 h 354.45 l 41.7,-68.39 H 1639.9 l 45.9,68.39"
         style="fill:#2d3340;fill-opacity:1;fill-rule:nonzero;stroke:none"
         id="path30" /><path
         d="M 2598.13,1605.5 H 1173.79 v 959.47 H 2598.13 V 1605.5"
         style="fill:#ffffff;fill-opacity:1;fill-rule:nonzero;stroke:none"
         id="path32" /><path
         d="M 2598.13,2444.16 H 1173.79 v 121.99 h 1424.34 v -121.99"
         style="fill:#d3d2d2;fill-opacity:1;fill-rule:nonzero;stroke:none"
         id="path34" /><path
         d="m 1594.51,2098.67 h -316.9 v 297.72 h 316.9 v -297.72"
         style="fill:#d3d2d2;fill-opacity:1;fill-rule:nonzero;stroke:none"
         id="path36" /><path
         d="m 1594.51,1745.04 h -316.9 v 297.73 h 316.9 v -297.73"
         style="fill:#d3d2d2;fill-opacity:1;fill-rule:nonzero;stroke:none"
         id="path38" /><path
         d="m 2508.66,2379.15 h -844.09 v 17.24 h 844.09 v -17.24"
         style="fill:#d3d2d2;fill-opacity:1;fill-rule:nonzero;stroke:none"
         id="path40" /><path
         d="m 2508.66,2314.71 h -844.09 v 17.25 h 844.09 v -17.25"
         style="fill:#d3d2d2;fill-opacity:1;fill-rule:nonzero;stroke:none"
         id="path42" /><path
         d="m 2508.66,2250.27 h -844.09 v 17.25 h 844.09 v -17.25"
         style="fill:#d3d2d2;fill-opacity:1;fill-rule:nonzero;stroke:none"
         id="path44" /><path
         d="m 2508.66,2185.83 h -844.09 v 17.24 h 844.09 v -17.24"
         style="fill:#d3d2d2;fill-opacity:1;fill-rule:nonzero;stroke:none"
         id="path46" /><path
         d="m 2508.66,2121.39 h -844.09 v 17.25 h 844.09 v -17.25"
         style="fill:#d3d2d2;fill-opacity:1;fill-rule:nonzero;stroke:none"
         id="path48" /><path
         d="m 2508.66,2056.96 h -844.09 v 17.24 h 844.09 v -17.24"
         style="fill:#d3d2d2;fill-opacity:1;fill-rule:nonzero;stroke:none"
         id="path50" /><path
         d="m 2508.66,1992.51 h -844.09 v 17.24 h 844.09 v -17.24"
         style="fill:#d3d2d2;fill-opacity:1;fill-rule:nonzero;stroke:none"
         id="path52" /><path
         d="m 2508.66,1928.07 h -844.09 v 17.25 h 844.09 v -17.25"
         style="fill:#d3d2d2;fill-opacity:1;fill-rule:nonzero;stroke:none"
         id="path54" /><path
         d="m 2508.66,1863.64 h -844.09 v 17.24 h 844.09 v -17.24"
         style="fill:#d3d2d2;fill-opacity:1;fill-rule:nonzero;stroke:none"
         id="path56" /><path
         d="m 2508.66,1799.2 h -844.09 v 17.23 h 844.09 v -17.23"
         style="fill:#d3d2d2;fill-opacity:1;fill-rule:nonzero;stroke:none"
         id="path58" /><path
         d="M 2508.66,1734.75 H 1664.57 V 1752 h 844.09 v -17.25"
         style="fill:#d3d2d2;fill-opacity:1;fill-rule:nonzero;stroke:none"
         id="path60" /><path
         d="m 2393.55,2474.8 h -70.07 v 70.05 h 70.07 v -70.05"
         style="fill:#c53236;fill-opacity:1;fill-rule:nonzero;stroke:none"
         id="path62" /><path
         d="m 2480.27,2474.8 h -70.06 v 70.05 h 70.06 v -70.05"
         style="fill:#c53236;fill-opacity:1;fill-rule:nonzero;stroke:none"
         id="path64" /><path
         d="m 2565.35,2474.8 h -70.06 v 70.05 h 70.06 v -70.05"
         style="fill:#c53236;fill-opacity:1;fill-rule:nonzero;stroke:none"
         id="path66" /><path
         d="m 2564.69,917.18 h 365.148 V 1128.2 H 2564.69 Z"
         style="fill:#8a4a2a;fill-opacity:1;fill-rule:nonzero;stroke:none"
         id="path68" /><path
         d="m 2644.56,966.059 c -26.58,0 -53.36,1.523 -79.87,4.25 V 1128.2 h 365.15 v -7.48 c -4.41,-7.69 -9.22,-14.91 -13.61,-21.26 -22.19,-32.35 -51.74,-60.06 -88.38,-83.42 -45.14,-28.72 -102.32,-47.63 -161.07,-49.618 -7.39,-0.242 -14.8,-0.363 -22.22,-0.363"
         style="fill:#723d22;fill-opacity:1;fill-rule:nonzero;stroke:none"
         id="path70" /><path
         d="m 3199.48,1702.64 c 0,338.28 -202.7,532.69 -453.32,534.29 l -2.16,0.03 h -0.48 -0.45 l -2.15,-0.03 c -250.69,-1.6 -453.32,-196.01 -453.32,-534.29 0,-438.75 315.8,-694.61 455.43,-695.75 l 0.04,-0.01 0.45,0.01 0.48,-0.01 v 0.01 c 139.65,1.14 455.48,257 455.48,695.75"
         style="fill:#8a4a2a;fill-opacity:1;fill-rule:nonzero;stroke:none"
         id="path72" /><path
         d="m 3154.56,1577.39 -26.04,-199.36 c 102.28,-45.03 118.29,189.56 118.29,189.56 -23.66,58.49 -92.25,9.8 -92.25,9.8"
         style="fill:#8a4a2a;fill-opacity:1;fill-rule:nonzero;stroke:none"
         id="path74" /><path
         d="m 2251.83,1567.59 c 0,0 16,-234.59 118.27,-189.56 l -26.03,199.36 c 0,0 -68.62,48.69 -92.24,-9.8"
         style="fill:#8a4a2a;fill-opacity:1;fill-rule:nonzero;stroke:none"
         id="path76" /><path
         d="M 2563.26,933.25 2123.98,797.43 c 0,0 -153.71,-27.282 -192.94,-187.301 L 1863.81,320.07 h 875.84 7.74 875.86 l -67.23,290.059 C 3516.8,770.148 3363.09,797.43 3363.09,797.43 l -439.23,135.82 h -360.6"
         style="fill:#8a4a2a;fill-opacity:1;fill-rule:nonzero;stroke:none"
         id="path78" /><path
         d="m 3623.25,320.07 -67.23,290.059 C 3516.8,770.148 3363.09,797.43 3363.09,797.43 l -186.96,57.8 c 0,0 79,-199.679 -288.04,-346.73 0,0 -107.75,-32.699 -141.86,-113.16 l -3.16,-7.352 -2.23,7.352 c -34.1,80.461 -141.86,113.16 -141.86,113.16 -367.07,147.051 -288.04,346.73 -288.04,346.73 l -186.96,-57.8 c 0,0 -153.71,-27.282 -192.94,-187.301 l -67.23,-290.059 899.96,-0.031 v 0.031 h 859.48"
         style="fill:#84d7e3;fill-opacity:1;fill-rule:nonzero;stroke:none"
         id="path80" /><path
         d="m 2461.35,2000.85 c 0,0 350.02,178.56 479.53,-178.74 0,0 52.29,545.83 -479.53,178.74"
         style="fill:#100702;fill-opacity:1;fill-rule:nonzero;stroke:none"
         id="path82" /><path
         d="m 2511.39,2203.5 c 0,0 -54.46,-146.95 -29.44,-188.67 0,0 -171.8,-70.07 -187.95,-418.51 0,0 -15.7,4.15 -35.74,-16.75 0,0 -130.65,492.88 253.13,623.93"
         style="fill:#1b0e08;fill-opacity:1;fill-rule:nonzero;stroke:none"
         id="path84" /><path
         d="m 2461.35,2000.85 c 0,0 423.88,310.6 468.49,-140.87 0,0 65.02,-288.43 269.64,-263.58 0,0 125.32,287.66 -116.63,588 0,0 -170.99,216.91 -421.29,138.63 0,0 -246.11,-86.07 -200.21,-322.18"
         style="fill:#1b0e08;fill-opacity:1;fill-rule:nonzero;stroke:none"
         id="path86" /><path
         d="m 2310.94,1386.33 c 0,0 29.41,-321.4 253.75,-416.021 V 1088.9 c 0,0 -153.42,137.45 -211.21,284.12 0,0 -27.85,-4.02 -42.54,13.31"
         style="fill:#1b0e08;fill-opacity:1;fill-rule:nonzero;stroke:none"
         id="path88" /><path
         d="m 3128.52,1378.03 c 0,0 -88.42,-206.39 -198.81,-273.94 l -60.49,-138.031 c 0,0 -81.34,-193.618 60.62,-283.387 0,0 198.68,-131.313 -86.06,-314.832 8.53,5.469 40.17,-0.211 49.62,-0.121 42.2,0.39 84.55,1.902 126.19,8.742 79.56,13.109 167.05,35.219 215.47,105.687 50.29,73.293 27.63,175.571 -21.47,243.204 -29.24,40.359 -58.34,86.117 -60.46,137.578 -2.78,67.011 55.68,113.461 83.24,168.94 32.09,64.53 39.43,144.36 12.58,211.91 -23.15,58.23 -67.74,101.35 -120.43,134.25"
         style="fill:#1b0e08;fill-opacity:1;fill-rule:nonzero;stroke:none"
         id="path90" /><path
         d="m 2930.46,1495.16 c 0,0 -115.03,11.97 -119.09,128.52 0,0 -2.76,36.77 8.22,63.96 0,0 125.92,43.28 268.26,0.37 0,0 36.97,-213.08 -157.39,-192.85 z m -265.97,125.75 c -4.03,-116.59 -119.1,-128.53 -119.1,-128.53 -194.32,-20.21 -157.35,192.85 -157.35,192.85 142.35,42.91 268.23,-0.38 268.23,-0.38 11.04,-27.17 8.22,-63.94 8.22,-63.94 z m 530.55,64.71 -78.05,24.45 -0.03,-2.06 c -173.68,51.88 -327.09,-0.82 -327.09,-0.82 l -0.04,-0.23 c -44.79,-10.46 -85.81,-5.64 -110.2,-0.57 -4.99,1.49 -12.85,3.68 -23.15,6.11 h -0.03 0.03 c -51.3,12.1 -163.43,29.95 -287.32,-4.35 l -0.08,1.52 -77,-14.93 v -67.29 l 65.7,-18.59 c 11.18,-71.52 53.49,-154.52 192.42,-140.06 0,0 140.87,14.64 145.82,157.33 0,0 0.78,9.82 0.17,23.68 38.22,36.15 70.44,10.19 83.32,-3.8 -0.18,-10.28 0.34,-17.1 0.34,-17.1 4.94,-142.67 145.78,-157.32 145.78,-157.32 135.23,-14.07 178.94,64.13 191.48,134.26 l 75.98,12.53 1.95,67.24"
         style="fill:#ffffff;fill-opacity:1;fill-rule:nonzero;stroke:none"
         id="path92" /><path
         d="m 2545.28,3555.4 c 0,-206.99 -167.78,-374.78 -374.77,-374.78 -206.98,0 -374.79,167.79 -374.79,374.78 0,206.98 167.81,374.78 374.79,374.78 206.99,0 374.77,-167.8 374.77,-374.78"
         style="fill:#6ca8a6;fill-opacity:1;fill-rule:nonzero;stroke:none"
         id="path94" /><path
         d="m 1796.45,3531.77 c -7.03,104.19 29.29,210.74 108.94,290.38 73.17,73.18 169.08,109.77 264.99,109.77 95.91,0 191.82,-36.59 265,-109.77 l 1.03,-1.06 -0.79,-0.79 c -67.83,67.88 -161.57,109.88 -265.11,109.88 -206.98,0 -374.79,-167.8 -374.79,-374.78 0,-7.94 0.25,-15.82 0.73,-23.63"
         style="fill:#bdbcbd;fill-opacity:1;fill-rule:nonzero;stroke:none"
         id="path96" /><path
         d="m 1906.44,3291.11 -1.05,1.03 c -66.73,66.72 -103.05,152.34 -108.94,239.63 -0.48,7.81 -0.73,15.69 -0.73,23.63 0,206.98 167.81,374.78 374.79,374.78 103.54,0 197.28,-42 265.11,-109.88 l -529.18,-529.19"
         style="fill:#517c7b;fill-opacity:1;fill-rule:nonzero;stroke:none"
         id="path98" /><path
         d="m 1078.18,2110.44 c 0,-206.99 -167.789,-374.78 -374.782,-374.78 -206.98,0 -374.765,167.79 -374.765,374.78 0,206.98 167.785,374.78 374.765,374.78 206.993,0 374.782,-167.8 374.782,-374.78"
         style="fill:#811520;fill-opacity:1;fill-rule:nonzero;stroke:none"
         id="path100" /><path
         d="m 329.426,2085.86 c -7.313,104.49 28.972,211.46 108.855,291.34 73.172,73.18 169.086,109.77 265,109.77 26.895,0 53.793,-2.88 80.188,-8.63 v -1.69 c -25.797,5.61 -52.59,8.57 -80.071,8.57 -206.98,0 -374.765,-167.8 -374.765,-374.78 0,-8.26 0.265,-16.45 0.793,-24.58"
         style="fill:#bdbcbd;fill-opacity:1;fill-rule:nonzero;stroke:none"
         id="path102" /><path
         d="m 916.152,2419.02 c -39.418,27.23 -84.308,47.1 -132.683,57.63 v 1.69 c 46.73,-10.19 91.879,-29.39 132.683,-57.61 v -1.71"
         style="fill:#191b21;fill-opacity:1;fill-rule:nonzero;stroke:none"
         id="path104" /><path
         d="m 968.523,2375.34 c -16.074,16.08 -33.605,30.72 -52.371,43.68 v 1.71 c 18.34,-12.69 35.809,-27.2 52.141,-43.53 l 1.023,-1.07 -0.793,-0.79"
         style="fill:#48908c;fill-opacity:1;fill-rule:nonzero;stroke:none"
         id="path106" /><path
         d="m 439.336,1846.15 -1.055,1.04 c -66.484,66.47 -102.769,151.71 -108.855,238.67 -0.528,8.13 -0.793,16.32 -0.793,24.58 0,206.98 167.785,374.78 374.765,374.78 27.481,0 54.274,-2.96 80.071,-8.57 v 0 c 48.375,-10.53 93.265,-30.4 132.683,-57.63 18.766,-12.96 36.297,-27.6 52.371,-43.68 L 439.336,1846.15"
         style="fill:#620f17;fill-opacity:1;fill-rule:nonzero;stroke:none"
         id="path108" /><path
         d="m 3923.46,2110.45 c 0,-206.99 -167.78,-374.78 -374.77,-374.78 -206.97,0 -374.78,167.79 -374.78,374.78 0,206.98 167.81,374.77 374.78,374.77 206.99,0 374.77,-167.79 374.77,-374.77"
         style="fill:#5c9b6b;fill-opacity:1;fill-rule:nonzero;stroke:none"
         id="path110" /><path
         d="m 3174.61,2087.23 c -6.9,104.06 29.41,210.44 108.94,289.97 73.18,73.18 169.1,109.77 265.01,109.77 95.92,0 191.84,-36.59 265.01,-109.77 l 1.04,-1.06 -0.8,-0.8 c -67.83,67.88 -161.57,109.88 -265.12,109.88 -206.97,0 -374.78,-167.79 -374.78,-374.77 0,-7.8 0.23,-15.54 0.7,-23.22"
         style="fill:#bdbcbd;fill-opacity:1;fill-rule:nonzero;stroke:none"
         id="path112" /><path
         d="m 3284.63,1846.15 -1.08,1.04 c -66.82,66.82 -103.14,152.61 -108.94,240.04 -0.47,7.68 -0.7,15.42 -0.7,23.22 0,206.98 167.81,374.77 374.78,374.77 103.55,0 197.29,-42 265.12,-109.88 l -529.18,-529.19"
         style="fill:#457450;fill-opacity:1;fill-rule:nonzero;stroke:none"
         id="path114" /><path
         d="m 1380.49,3164.07 c 0,-206.99 -167.8,-374.78 -374.79,-374.78 -206.97,0 -374.755,167.79 -374.755,374.78 0,206.98 167.785,374.76 374.755,374.76 206.99,0 374.79,-167.78 374.79,-374.76"
         style="fill:#f9a72b;fill-opacity:1;fill-rule:nonzero;stroke:none"
         id="path116" /><path
         d="m 631.688,3140.32 c -7.059,104.22 29.238,210.83 108.898,290.49 73.184,73.18 169.098,109.77 265.014,109.77 95.91,0 191.83,-36.59 265.01,-109.77 l 1.03,-1.05 -0.81,-0.81 c -67.83,67.89 -161.57,109.88 -265.13,109.88 -206.97,0 -374.755,-167.78 -374.755,-374.76 0,-7.97 0.25,-15.9 0.743,-23.75"
         style="fill:#bdbcbd;fill-opacity:1;fill-rule:nonzero;stroke:none"
         id="path118" /><path
         d="m 741.66,2899.77 -1.074,1.03 c -66.688,66.7 -102.988,152.27 -108.898,239.52 -0.493,7.85 -0.743,15.78 -0.743,23.75 0,206.98 167.785,374.76 374.755,374.76 103.56,0 197.3,-41.99 265.13,-109.88 L 741.66,2899.77"
         style="fill:#b87a1f;fill-opacity:1;fill-rule:nonzero;stroke:none"
         id="path120" /><path
         d="m 3630.06,3164.07 c 0,-206.99 -167.81,-374.78 -374.79,-374.78 -206.99,0 -374.76,167.79 -374.76,374.78 0,206.98 167.77,374.76 374.76,374.76 206.98,0 374.79,-167.78 374.79,-374.76"
         style="fill:#d73649;fill-opacity:1;fill-rule:nonzero;stroke:none"
         id="path122" /><path
         d="m 2881.46,3137.1 c -8.03,105.24 28.19,213.23 108.68,293.71 73.18,73.18 169.09,109.77 265.01,109.77 95.92,0 191.84,-36.59 265.03,-109.77 l 1,-1.05 -0.8,-0.8 c -67.83,67.88 -161.57,109.87 -265.11,109.87 -206.99,0 -374.76,-167.78 -374.76,-374.76 0,-9.07 0.32,-18.06 0.95,-26.97"
         style="fill:#bdbcbd;fill-opacity:1;fill-rule:nonzero;stroke:none"
         id="path124" /><path
         d="m 2991.21,2899.77 -1.07,1.03 c -65.87,65.87 -102.1,150.16 -108.68,236.3 -0.63,8.91 -0.95,17.9 -0.95,26.97 0,206.98 167.77,374.76 374.76,374.76 103.54,0 197.28,-41.99 265.11,-109.87 l -529.17,-529.19"
         style="fill:#a12734;fill-opacity:1;fill-rule:nonzero;stroke:none"
         id="path126" /><path
         d="m 1174.22,2951.52 c -3.4,104.72 -77.53,188.41 -168.5,188.41 -90.974,0 -165.083,-83.69 -168.493,-188.41 h 336.993"
         style="fill:#ffffff;fill-opacity:1;fill-rule:nonzero;stroke:none"
         id="path128" /><path
         d="m 1107.94,3255 c 0,-56.44 -45.77,-102.21 -102.22,-102.21 -56.45,0 -102.204,45.77 -102.204,102.21 0,56.45 45.754,102.21 102.204,102.21 56.45,0 102.22,-45.76 102.22,-102.21"
         style="fill:#ffffff;fill-opacity:1;fill-rule:nonzero;stroke:none"
         id="path130" /><path
         d="m 3370.74,3162.07 c 0,-56.62 -45.9,-102.52 -102.54,-102.52 -56.62,0 -102.52,45.9 -102.52,102.52 0,56.62 45.9,102.52 102.52,102.52 56.64,0 102.54,-45.9 102.54,-102.52 z m 123.46,-39.81 v 83.59 h -49.42 c -4.7,19.06 -12.43,36.91 -22.61,53.07 l 35.39,35.38 -59.1,59.11 -35.82,-35.82 c -16.08,9.78 -33.8,17.09 -52.62,21.52 v 50.94 h -83.61 v -50.94 c -18.83,-4.43 -36.55,-11.74 -52.62,-21.52 l -35.83,35.82 -59.1,-59.11 35.39,-35.38 c -10.19,-16.16 -17.9,-34.01 -22.61,-53.07 h -49.41 v -83.59 h 48.49 c 4.36,-19.58 11.85,-37.98 21.98,-54.61 l -33.84,-33.84 59.1,-59.11 33.41,33.4 c 16.72,-10.53 35.25,-18.41 55.04,-23.06 v -46.98 h 83.61 v 46.98 c 19.78,4.65 38.32,12.53 55.04,23.06 l 33.4,-33.4 59.1,59.11 -33.83,33.84 c 10.12,16.63 17.6,35.03 21.97,54.61 h 48.5"
         style="fill:#ffffff;fill-opacity:1;fill-rule:nonzero;stroke:none"
         id="path132" /><path
         d="m 3564.12,1957.76 c -24.9,0 -45.09,20.19 -45.09,45.09 0,17.93 10.47,33.42 25.63,40.69 l -16.09,107.57 h 71.08 l -19.16,-106.25 c 16.81,-6.55 28.73,-22.89 28.73,-42.01 0,-24.9 -20.2,-45.09 -45.1,-45.09 z m -35.59,395.67 h 71.2 c 63.36,-3.51 76.64,-50.01 76.64,-90.33 v -37.49 h -220.18 v 37.49 c -1.74,45.56 14.32,89.12 72.34,90.33 z m 183.27,-135.7 v 70.63 c 0,54.82 -44.44,99.27 -99.27,99.27 h -96.81 c -54.83,0 -99.27,-44.45 -99.27,-99.27 v -70.63 c -20.79,-11.19 -34.9,-33.13 -34.9,-58.38 v -209.83 c 0,-36.6 29.66,-66.27 66.26,-66.27 h 232.62 c 36.6,0 66.27,29.67 66.27,66.27 v 209.83 c 0,25.25 -14.12,47.19 -34.9,58.38"
         style="fill:#ffffff;fill-opacity:1;fill-rule:nonzero;stroke:none"
         id="path134" /><path
         d="m 2136.68,3760.71 -0.43,-1.42 -1.46,-0.63 -1.58,-0.31 -1.06,0.1 -1.99,1.06 -1.47,0.72 c 0,0 -0.74,0 -1.99,-0.41 -1.25,-0.42 -1.07,-0.73 -1.07,-1.05 l 0.11,-2.1 0.31,-1.58 0.63,-2.21 -0.72,-1.68 c -0.22,-0.31 -0.75,-0.43 -1.9,-0.53 -1.15,-0.1 -0.74,0 -1.05,0.1 l -0.63,0.22 -2.95,1.05 -0.84,-0.74 -0.32,-0.94 c 0,0 1.27,-1.48 2.67,-2.63 1.38,-1.16 0,-1.05 0,-1.05 l -1.1,-0.63 c 0,0 -3.25,0.2 -4.41,0.83 -1.15,0.64 -3.03,1.48 -4.73,3.27 -1.69,1.79 -0.52,0.95 -1.25,2.73 -0.74,1.79 -0.95,1.16 -1.6,2.21 -0.6,1.05 0,0 -0.72,1.58 -0.74,1.57 0,0.94 0.53,2.2 0.52,1.27 1.35,1.17 2.1,1.84 0.74,0.68 4.73,-0.25 6.81,0 2.08,0.25 1.4,-0.25 3.27,0.48 1.91,0.73 0.66,0.31 0.96,1.58 0.31,1.26 0,0 -0.3,1.36 -0.32,1.37 0,0 -0.76,0.74 l -1.99,0.84 -1.18,0.84 c -0.65,0.63 -1.44,0.73 -2.29,1.79 -0.85,1.05 -0.53,0.74 -1.25,1.68 -0.76,0.94 -0.96,1.16 -1.49,1.9 l -0.41,0.42 -1.37,0.9 -1.91,1.2 -1.87,0.53 h -1.47 l -1.89,-0.22 -1.47,-0.62 c 0,0 -0.65,-0.43 -2.01,-0.74 -1.38,-0.32 -0.74,0 -0.74,0 0,0 -0.53,0 -2.95,0.79 -2.4,0.8 -0.94,0 -0.94,0 h -0.96 l -1.58,0.05 h -1.98 -1.26 -1.05 l -1.16,0.84 -0.94,0.98 v 1.23 l 0.83,0.73 1.16,1.8 1.16,0.62 1.48,1.02 1.04,0.66 1.58,1.58 1.68,0.73 h 0.41 0.74 l 2,-0.82 1.15,-1.49 1.39,-0.66 c 0,0 2.09,-0.17 3.42,0 1.32,0.16 1.95,0.87 2.36,0.66 0.41,-0.2 1.57,0.43 2.61,0.63 1.06,0.22 1.68,-1.05 2.58,-1.98 0.88,-0.95 2.05,-1.58 2.05,-1.58 l 1.8,-0.71 c 0,0 1.78,0.07 3.57,0.59 1.78,0.52 1.15,0 2.52,0 1.37,0 0.85,-0.73 1.37,-1.36 l 0.95,-1.05 2.53,-2.74 c 0,0 2.73,-0.95 4.2,-1.36 1.48,-0.43 0.83,-1.16 0.83,-1.69 0,-0.52 0,-1.05 0,-2.21 0,-1.15 0.22,-1.57 0.22,-1.57 0,0 1.47,-2 2.52,-2.95 1.06,-0.94 1.27,-1.04 2.42,-1.68 1.16,-0.63 0.63,-1.06 0.53,-1.74 z m -8.69,-66.51 c -1.33,0.39 -2.09,1.41 -3.61,1.49 -1.95,0.1 -3.93,-1.08 -5.9,-0.64 -3.93,0.87 1.06,3.37 2.74,4.25 3.12,1.62 4.07,4.29 6.51,6.68 v 0.21 l 0.83,0.4 c 0.07,-1.84 -0.08,-3.98 0.66,-5.66 0.66,-1.55 2.6,-2.21 4.59,-2.34 0.43,-3.13 -2.72,-5.3 -5.82,-4.39 z m -43.77,88.74 h -3.17 l -3.16,-1.49 -0.83,-0.58 -2.1,-0.86 -0.62,-0.2 -0.65,1.64 1.68,2.97 h 1.27 2.52 1.89 1.25 1.07 0.85 z m -14.52,-0.4 v -1.21 l -1.47,-1.43 h -1.91 l -1.03,-1.43 -1.27,0.28 c 0,0 -1.27,-0.63 -2.54,0 -1.26,0.63 0,0 -1.04,0 -1.05,0 0,1.26 0,1.26 h -1.26 v 0.86 l -1.13,0.24 -0.98,0.22 2.32,0.78 c 0,0 0,0 1.25,0 1.26,0 0,0 1.7,0.43 l 1.05,0.17 v 0.46 l 2.53,1.25 0.61,-0.21 c 0.64,-0.2 1.7,0.21 3.17,0 z m 21.74,6.09 v 0.99 l 1.12,0.98 1.54,1.83 h 2.79 l 0.98,-0.57 0.15,-0.56 0.97,-0.7 0.56,-0.29 1.42,-0.63 h 1.26 c 0,0 2.37,-0.2 3.9,0 1.57,0.21 1.7,-0.35 2.13,0 h 1.26 c 0,0 0.98,0.08 3.65,0 2.65,-0.07 1.38,0.36 2.65,0 1.26,-0.35 0.56,-1.05 0.56,-1.05 l -1.54,-1.88 -1.27,0.07 h -1.66 -1.7 -0.97 l -2.25,0.57 -1.83,0.12 h -2.24 -2.51 -1.68 -1.42 c 0,0 0,0 -1.39,0 -1.41,0 -2.13,0.7 -2.13,0.7 0,0 -1.09,-0.28 -2.5,0 -1.41,0.29 0,0 0.15,0.42 z m -32.9,-202.73 c -2.73,-1.05 -2.73,-0.42 -4.19,-1.26 -1.47,-0.85 -0.44,-0.42 -1.47,-0.85 -1.04,-0.4 -3.49,-0.01 -3.56,0 -0.07,-0.01 -0.36,-0.05 -1.29,-0.18 -1.68,-0.23 -3.36,-0.61 -3.99,0 -0.64,0.61 -0.64,-0.21 -1.9,-0.33 -1.26,-0.11 -2.3,0.12 -3.78,0 -1.47,-0.11 -1.47,-0.11 -1.47,-0.11 l 3.57,1.05 1.68,0.2 1.48,0.85 1.05,1.38 -0.63,1.78 v 1.43 h 2.73 2.53 c 0,0 -0.84,0.67 1.05,-0.16 1.9,-0.85 2.53,-0.43 3.56,-0.85 1.07,-0.42 1.9,-0.63 3.16,-1.05 1.27,-0.42 1.06,1.05 1.27,-0.42 0.2,-1.48 2.95,-0.43 0.2,-1.48 z m -23.11,3.99 h -2.33 l -18.09,7.79 -2.31,-0.21 -1.47,-0.42 c 0,0 -0.06,0 -1.39,0 -1.36,0 -1.36,0 -1.36,0 l -2.29,0.63 v 1.05 l 1.47,0.63 4.21,2.1 6.51,-1.05 2.74,-1.05 c 0,0 2.93,1.05 3.78,0 0.84,-1.05 1.47,-0.63 2.95,-1.89 1.47,-1.27 1.47,-0.63 2.52,-1.9 1.05,-1.26 -0.42,0.63 1.05,-1.26 1.47,-1.9 2.72,-2.31 3.37,-2.52 l 0.64,-0.21 z m 220.03,131.31 h 4.21 l 4.49,3.09 c 0,0 1.12,1.11 2.25,0 1.11,-1.13 1.95,-1.19 2.79,-1.31 h 2.54 1.95 1.39 c 0,-1.78 1.41,-0.1 0,-1.78 -1.39,-1.68 -3.93,-2.25 -3.93,-2.25 h -1.38 l -1.13,-1.96 h -1.68 -3.09 -1.96 -1.97 l -2.23,1.12 -2.25,0.28 h -1.41 z m 31.98,-13.75 h 1.95 l 1.97,2.53 -1.97,1.12 h -1.95 v 2.25 1.12 1.4 h 1.95 v 1.12 h 1.97 v 1.69 2.2 1.15 l -1.13,1.41 -2.79,1.34 v 1.46 c 0,0 0,0 0.27,1.12 0.28,1.13 0,0 0.28,1.69 0.27,1.68 0,0 0.56,2.8 0.57,2.81 1.68,0 1.68,0 l 1.68,-1.12 v -2.24 -1.97 l 0.57,-1.74 h 2.25 l 1.11,-2.75 1.4,-3.15 0.57,-1.89 3.93,-3.64 1.66,-1.4 -1.95,-1.41 v -1.4 -1.69 l -1.68,-0.84 h -2.53 -1.4 c 0,0 -4.21,-0.84 -5.88,-0.84 l -2.52,-1.11 h -3.92 z m 28.73,-39.96 c 0.02,1.9 0.06,3.12 0.69,4.89 0.44,1.29 2.07,3.65 2.05,4.59 l 0.84,-1.27 c 1.18,-1.05 3.43,-0.47 4,-2.31 0.63,-2.08 -1.31,-3.32 -2.5,-4.47 -2.8,-2.72 0.55,-6.31 -2.55,-8.94 -4.12,-3.51 -2.55,5.4 -2.53,7.51 z m 44.46,-281.66 c -2.83,5.05 0,3.08 -1.68,7.56 -1.7,4.49 -1.7,2.54 -2.54,3.1 -0.83,0.56 -2.51,2.52 -4.49,7.01 -1.95,4.48 -1.69,5.88 -2.8,11.21 -1.12,5.34 -0.85,3.09 -1.97,7.29 -1.11,4.21 -0.57,2.81 -1.49,5.05 -0.91,2.24 -2.14,5.62 -4.1,8.7 -1.97,3.07 -2.54,3.65 -3.38,6.17 -0.84,2.52 -0.56,4.2 -1.39,7.56 -0.85,3.38 0,3.38 0.83,7.86 0.85,4.48 2.24,3.08 3.09,5.61 0.85,2.51 1.4,2.8 1.97,4.21 0.54,1.38 0.84,3.07 0.27,5.59 -0.56,2.53 -0.27,3.94 -0.84,5.34 -0.55,1.4 -0.84,3.93 -1.67,5.61 -0.85,1.68 -1.42,2.24 -1.97,5.32 -0.56,3.08 -0.29,1.4 -0.29,2.8 0,1.41 -4.61,6.17 -4.61,6.17 -4.9,5.06 -0.15,2.53 -3.1,7.99 -2.94,5.48 -0.82,2.11 -2.09,6.32 -1.27,4.2 0,0 -0.85,5.04 -0.85,5.05 1.68,2.52 1.26,6.31 -0.41,3.79 0,0 -0.84,2.53 -0.84,2.52 -1.27,2.1 -2.52,3.87 -1.27,1.77 -2.11,0 -2.11,0 0,0 -4.2,0.33 -7.15,3.7 -2.95,3.36 0,0 -1.68,1.69 -1.68,1.67 -3.8,2.93 -6.31,4.2 -2.52,1.25 -4.2,0.42 -4.2,0.42 0,0 0,0 -2.53,-0.42 -2.53,-0.43 0,0 -3.36,-1.27 -3.36,-1.26 -2.1,-2.52 -2.1,-2.52 0,0 -6.75,-2.1 -8,-2.1 -1.26,0 -2.52,0.84 -2.52,0.84 0,0 -4.2,0 -8,-0.42 -3.78,-0.42 0,0 -5.05,-2.52 -5.04,-2.53 -3.36,-1.69 -10.94,0 -7.55,1.67 0,0 -2.93,2.1 -2.94,2.1 -2.11,1.69 -4.5,4.62 -2.37,2.95 -1.39,2.95 -3.48,7.39 -2.11,4.43 -1.27,3.13 -3.81,10.28 -2.51,7.14 0,0 -1.66,2 -1.7,1.99 -2.95,3.05 -6.31,7.25 -3.36,4.21 0,0 -0.43,1.26 -0.44,1.26 -1.25,4.63 0,8.83 1.24,4.21 1.26,2.53 2.11,5.05 0.84,2.53 0.41,2.53 0.41,5.05 0,2.52 0,2.1 -1.68,3.79 -1.68,1.68 -0.41,2.09 0,6.3 0.42,4.21 0,0 0.84,2.53 0.84,2.53 2.53,3.36 4.63,6.31 2.09,2.94 0,2.1 0,2.1 l 4.21,6.72 c 0,0 2.1,1.68 2.93,3.38 0.85,1.68 2.24,2.52 2.24,2.52 0,0 1.13,1.27 1.97,2.52 0.86,1.26 2.53,3.36 2.53,3.36 h 2.09 c 0,0 2.95,2.95 4.26,4.08 1.29,1.14 -0.06,3.92 0,6.45 l 4.16,2.94 5.04,4.63 c 0,0 0,0 1.62,1.25 1.6,1.27 2.29,3.8 2.29,3.8 l 5.51,-1.27 7.84,-0.85 c 0,0 6.32,4.21 9.27,7.16 0,0 8.39,0 12.59,0 4.22,0 2.1,-0.43 2.1,-0.43 h 4.21 l 3.36,0.43 c 0,0 5.49,1.69 6.76,1.69 1.25,0 1.25,-2.95 1.25,-2.95 l 1.26,-2.95 v -2.52 l 0.42,-4.63 c 0,0 3.79,-2.52 5.04,-2.94 1.27,-0.42 2.95,-0.84 2.95,-0.84 l 5.09,-2.11 v -2.1 c 0,0 2.89,-2.1 4.73,-2.52 1.82,-0.43 7.99,-1.83 8.82,-2.11 h 2.53 c 0.84,0 1.95,0.56 3.63,2.03 1.69,1.46 0,2.75 0,4.43 0,1.68 1.13,3.07 1.13,3.07 l 7.29,-0.56 4.22,-2.24 c 0,0 2.79,-1.12 4.47,-1.4 0,0 5.61,0 7.31,1.13 0,0 8.12,-2.81 8.96,-3.93 0.84,-1.13 5.33,0 6.17,0 h 2.52 c 0,0 1.68,0 5.33,3.36 l 0.55,0.53 c -2.06,5.87 -4.32,11.63 -6.78,17.29 -1.62,-0.09 -3.73,-0.32 -5.55,-0.16 -3.08,0.29 0,0 -1.13,0.34 -1.11,0.35 -1.68,0 -1.68,0 l -1.12,0.28 c 0,0 -2.8,-0.62 -4.76,0 -1.97,0.61 -1.97,0 -1.97,0 l -1.95,2.75 -0.85,2.25 -3.36,5.89 1.96,0.27 1.69,0.84 2.24,1.69 1.4,1.69 6.45,1.95 0.04,0.01 c -2.23,4.18 -4.54,8.3 -6.96,12.33 l -2.9,-3.93 -0.56,-3.9 c 0,-0.84 0.85,-2.26 1.97,-3.11 1.13,-0.83 0,-2.34 0,-2.34 l -3.92,-1.3 c -0.85,0.29 -2.24,0.29 -3.36,1.3 -1.13,1.01 -3.93,-1.01 -5.9,0 -1.97,1.01 -3.93,-3.26 -4.48,-4.66 -0.57,-1.41 0.55,-2.53 0.55,-2.53 l 2.25,-3.08 v -2.8 c 0,0 -0.85,-1.97 -1.97,-2.92 -1.13,-0.93 -3.08,0 -3.08,0 h -1.41 c 0,0 -0.84,2.92 -0.27,5.44 0.57,2.52 0,0 2.25,0.28 2.23,0.27 0,0 -0.3,0.83 l -1.95,3.66 c 0,0 -2.27,0 -3.65,0 -1.39,0 -1.39,2.79 -1.39,2.79 0,0 0,0 -1.13,0.85 -1.11,0.84 1.13,1.96 0,4.77 -1.11,2.8 -2.24,2.52 -2.24,2.52 0,0 0,0 -2.46,1.4 -2.44,1.4 0,0.84 0,0.84 l -3.99,1.69 c 0,0 -3.36,1.12 -5.05,1.96 -1.68,0.84 -5.61,2.81 -5.61,2.81 l -1.95,2.51 h -3.1 l -1.11,-3.65 h 1.95 l 1.98,-3.36 2.52,-3.9 1.67,-1.43 4.2,-2.79 c 0,0 5.05,-2.85 7.03,-2.85 1.95,0 1.41,-1.37 1.41,-1.37 l -2.26,0.29 c 0,0 0,0 -1.13,1.08 -1.12,1.07 -2.51,0 -2.51,0 v -3.32 -2.81 -3.37 c 0,0 0,0 -1.4,0 -1.42,0 0,3.09 0,3.09 0,0 0,0 -0.57,1.13 -0.57,1.12 0.57,1.12 0,1.96 l -1.39,1.4 v 1.92 c 0,0 -1.15,0.88 -2.07,1.44 -0.91,0.56 -1.87,0.56 -1.87,0.56 l -4.47,3.09 c 0,0 -1.41,1.12 -2.82,1.98 -1.4,0.84 -2.52,1.1 -3.64,1.94 -1.12,0.84 -1.7,1.13 -1.7,1.13 l -2.51,2.52 -1.97,1.67 -3.08,-1.75 -2.53,-1.88 -5.6,-0.29 c 0,0 0,0 -1.42,1.51 -1.39,1.49 -2.23,0 -2.23,0 h -1.96 l -4.78,-3.75 v -1.1 l -1.68,-3.11 -1.95,-1.96 -3.64,-3.22 -1.13,-2.94 -1.68,-3.66 -1.54,-2.8 c 0,0 -4.61,-2.52 -6.02,-3.36 -1.41,-0.85 -3.92,0 -3.92,0 h -2.54 -3.93 -1.33 l -1.74,3.93 c 0,0.83 0.54,1.67 1.74,2.23 1.19,0.57 2.29,1.97 2.29,1.97 0,0 -0.96,2.24 0,3.64 0.95,1.41 0,2.25 0,2.25 l 1.14,2.52 v 1.69 l -1.14,1.39 c 0,0 -3.49,0 -5.17,1.43 -1.69,1.41 -1.95,0 -1.95,0 v 2.5 l 1.95,1.68 c 0.85,0.56 1.42,0.57 3.38,0.57 1.95,0 0,0 1.79,0.09 1.81,0.08 3.55,-1.21 5.51,-0.37 1.95,0.84 3.92,0 3.92,0 0,0 2.44,-1.06 3.5,-1.06 1.03,0 1.03,0 2.52,1.06 1.46,1.04 0,0 0,2.1 v 0.9 0.1 0.47 c 0,1.47 0.63,2.32 0,4.63 -0.64,2.31 0.41,1.05 0,2.1 -0.41,1.06 0.41,1.89 -0.85,3.37 -1.25,1.48 0,0 -0.64,0.42 -0.61,0.42 -2.93,1.06 -3.98,1.47 -1.06,0.42 -1.9,1.69 -1.9,2.53 l 3.38,1.04 c 0.63,0.22 2.09,0.42 3.99,0.64 1.87,0.21 3.14,0.64 4.63,1.46 1.46,0.85 2.1,1.68 3.56,2.73 1.48,1.06 3.16,1.69 4.42,2.53 1.25,0.85 2.33,1.48 3.59,2.11 1.27,0.63 1.03,0.63 1.67,1.05 0.62,0.42 2.3,1.05 3.99,2.73 1.68,1.68 1.07,1.05 1.26,1.68 l 2.11,1.9 c 0.43,0.85 1.68,0.43 3.18,1.33 1.45,0.91 1.25,-0.48 2.71,0 1.48,0.5 1.48,-0.48 1.68,0 l 2.95,1.89 h 2.1 2.95 3.99 l 4,-1.89 3.41,0.78 4.16,1.11 h 5.05 c 0.64,-0.15 1.9,0.14 3.59,0 1.68,-0.15 2.72,2 2.72,2 0,0 0,0.91 0,2.25 -3.38,3.72 -6.86,7.33 -10.46,10.85 l -0.49,-0.88 c -0.62,-1.28 -1.47,-2.72 -1.47,-2.72 0,0 -1.88,-2.94 -3.1,-3.36 -1.21,-0.43 -2.78,-1.48 -4.04,-2.24 -1.27,-0.76 -2.73,0.13 -4,1.39 -1.25,1.27 -0.41,2.11 -1.25,4.84 -0.84,2.74 -0.22,1.89 -1.27,3.58 -1.06,1.67 -1.26,1.67 -2.52,1.67 -1.27,0 -4.42,-1.25 -6.95,-1.88 -2.51,-0.63 -3.56,-0.22 -3.56,-0.22 0,0 -1.48,0.22 -2.12,1.27 -0.61,1.05 -0.83,1.89 -1.69,3.15 -0.82,1.26 -0.6,1.47 -1.02,4.49 -0.44,3.02 0,1.19 -0.44,3.3 -0.41,2.09 2.54,1.67 3.37,3.57 0.83,1.88 1.26,0.83 2.72,1.26 1.47,0.42 2.95,0 2.95,0 0,0 2.07,0.29 4.08,1.16 -20.54,16.25 -43.64,29.44 -68.56,38.87 l -1.56,-1.55 c -2.92,-2.3 0.84,-0.54 -6.28,-3.11 -7.17,-2.56 -8.85,-4.46 -8.85,-4.46 l -2.1,-1.24 v -2.4 l -2.53,-2.42 0.84,-2.98 c 0,0 3.37,-0.43 1.27,-2.11 -2.11,-1.67 -3.77,-2.08 -3.77,-2.08 0,0 -1.71,0.43 -2.95,0 -1.27,-0.43 0,1.28 -3.37,0 -3.39,-1.27 -13.06,-3.65 -13.06,-3.65 -2.1,-1.84 -6.03,-4.52 -6.03,-4.52 0,0 2.67,2.36 -1.95,0 -4.62,-2.36 -12.19,-2.78 -12.19,-2.78 0,0 0,3.78 -2.52,0 -2.54,-3.79 -1.7,-2.1 -4.65,-5.46 -2.93,-3.38 -2.93,-3.38 -2.93,-3.38 0,0 -5.9,-0.21 -6.31,-3.04 -0.42,-2.85 -11.05,-3.26 -13.73,-2.85 -2.67,0.43 -4.35,2.85 -4.35,2.85 0,0 -1.7,4.31 -1.27,5.99 0.42,1.68 1.27,6.31 2.52,6.73 1.27,0.41 3.1,1.94 3.1,1.94 v 2.9 l 1.49,1.62 1.52,2.8 1.68,1.26 c 0.62,0.42 1.27,1.05 2.09,3.15 0.86,2.1 -0.41,1.69 -0.41,1.69 v 1.92 c 0,0 1.27,0.8 1.87,2.07 0.66,1.26 0.23,1.06 0,2.31 -0.19,1.26 -0.6,1.05 -0.6,1.05 l -4.01,2.94 -6.3,2.15 c 0,0 -1.27,2.34 -1.68,4.73 -0.43,2.39 2.09,1.54 -0.43,2.39 -2.52,0.83 -13.44,-0.9 -13.44,-0.9 h -2.54 v 3.41 c 0,0 2.95,3.79 4.63,2.95 1.66,-0.84 10.51,-1.42 10.51,-1.42 0,0 6.21,0.16 7.11,1.42 0.87,1.26 -0.39,6.31 3.39,5.89 3.8,-0.42 10.53,2.1 10.53,2.1 l -0.51,0.37 c -4.45,0.22 -8.93,0.33 -13.41,0.33 -1.39,0 -2.78,-0.03 -4.16,-0.04 l -0.71,-0.38 -3.78,-1.54 -3.37,-1.69 -1.81,-0.83 c 0,0 -4.77,-1.13 -7.15,-1.27 -2.38,-0.13 -0.85,-0.55 -1.83,-0.55 -0.97,0 -1.82,-0.71 -2.24,-0.71 l -3.51,-0.42 -3.22,-1.26 -2.95,-0.98 -2.24,-1.15 c -0.44,-0.3 -1.27,-0.39 -2.53,-0.82 -1.27,-0.41 -1.54,-0.7 -2.39,-0.84 l -2.1,-1.11 -1.27,-1.46 -1.52,-0.79 -1.27,-0.7 -2.52,0.7 -1.27,0.79 -2.45,0.62 h -1.05 l -1.81,-0.62 h -2.53 l -3.65,1.07 c -0.13,0.17 0.42,0.66 1.41,0.18 l 0.65,-0.18 1.17,0.25 c 0.42,-0.14 2.24,-0.14 3.49,0.7 1.27,0.83 1.68,0 2.09,0 0.44,0 0.59,0 0.91,0.98 0.32,0.98 1.07,0 1.07,0 l -1.07,2.66 1.93,-1.13 h 1.11 c 0,0 0.84,0.29 1.85,1.27 1.01,0.98 0.4,0.84 0.1,2.09 -0.27,1.28 0,0 0.57,1.41 0.56,1.4 3.79,-1.12 3.79,-1.12 l 0.84,-0.12 0.97,-0.58 0.85,-0.14 1.13,0.14 4.48,0.58 c 0.42,-0.27 0.56,0.69 1.96,2.22 1.41,1.55 0.43,0.71 0.73,1.41 l -0.57,0.56 h -1 c 0,0 -1.19,0 -2.71,0.07 -7.74,-1.13 -15.35,-2.61 -22.86,-4.4 l -0.5,-0.51 v -1.05 h -1.27 -2.74 l -0.43,0.32 c -20.58,-5.39 -40.18,-13.25 -58.43,-23.26 l 1.03,-0.16 c 2.53,-0.38 0,-2.55 0,-2.55 0,0 -2.1,-2.54 -3.36,-4.17 -1.27,-1.64 -2.11,1.63 -3.37,2.06 l -1.53,0.68 c -3.22,-1.9 -6.39,-3.87 -9.51,-5.91 4.08,-0.43 14.74,-1.5 18.55,-1.5 4.77,0 4.21,0.84 6.44,3.37 2.26,2.52 4.21,3.36 5.61,5.88 1.41,2.53 4.5,2.24 4.48,1.97 -0.04,-0.28 4.79,-5.61 9.55,-10.38 4.76,-4.77 3.94,1.41 10.11,3.65 6.16,2.24 8.11,2.8 8.11,2.8 l -2.79,-8.41 c 0,0 -1.4,-2.81 -2.81,-2.83 -1.41,-0.03 -4.19,-1.38 -5.61,-1.38 -1.39,0 -4.48,-1.4 -7.85,-2.53 -3.36,-1.11 -4.47,-0.84 -7.58,-1.4 -3.09,-0.55 -4.2,-2.79 -6.45,-4.2 -2.24,-1.4 -6.17,-1.68 -10.37,-2.24 -4.19,-0.57 -4.76,-1.68 -7.28,-1.78 -2.53,-0.11 -2.53,-3.55 -3.93,-5.51 -1.4,-1.96 -0.55,-5.61 -0.55,-7.58 0,-1.95 1.12,-3.36 1.68,-5.32 0.55,-1.96 9.53,-1.69 9.53,-1.69 0,0 4.75,-2.79 4.75,-3.92 0,-1.13 1.4,-4.77 1.68,-9.53 0.3,-4.77 4.79,-4.21 4.79,-4.21 0,0 9.54,8.69 12.61,10.94 3.07,2.25 3.07,3.65 5.04,6.45 1.98,2.8 1.42,3.08 3.37,5.88 1.98,2.81 4.76,5.05 5.89,6.73 1.13,1.69 1.69,0.85 7.85,5.06 1.49,1 2.38,1.65 2.89,2.06 l -0.37,0.17 c 0,0 2.09,1.13 0.37,-0.17 l 10,-4.59 h 3.65 l 7.3,-2.81 c 0.56,-0.84 5.05,-10.09 6.73,-14.58 1.68,-4.48 4.77,-3.36 6.99,-5.04 2.25,-1.68 0.29,-7.02 0.29,-7.02 0,0 -10.64,-3.08 -12.32,-5.32 -1.69,-2.25 -9.27,-2.8 -13.48,-3.09 -4.2,-0.28 -8.39,0 -8.39,0 0,0 -8.42,-4.77 -8.42,-6.52 0,-1.75 5.04,-0.77 7.28,-0.21 2.25,0.56 1.98,0 4.77,-1.96 2.81,-1.95 0.56,-4.57 0.56,-4.57 0,0 -0.29,-6.09 -1.69,-7.2 -1.39,-1.14 0,0 -2.5,-1.97 -2.54,-1.96 -4.21,-2.25 -6.74,-2.53 -2.52,-0.27 0,0 -0.3,3.09 -0.27,3.08 -1.38,5.05 -1.38,5.05 0,0 0,0 -4.22,-1.4 -4.2,-1.41 -5.59,-0.84 -9.51,-3.38 -3.95,-2.51 -3.36,-3.92 -5.61,-5.04 -2.26,-1.12 -2.54,-3.37 -4.51,-5.6 -1.94,-2.25 -5.33,-2.81 -8.69,-3.94 -3.36,-1.12 -6.17,-1.96 -6.99,-2.79 l -4.2,-7.01 c 0,0 -2.25,-3.65 -4.22,-6.17 -1.97,-2.52 -7.85,-7.85 -7.85,-7.85 l -10.1,-12.06 c -0.84,-0.84 -0.84,-7.29 -0.84,-8.97 0,-1.68 0,-1.68 -1.11,-8.7 -1.14,-7.01 -1.69,-1.96 -1.69,-1.96 0,0 -4.78,3.08 -5.61,5.89 -0.85,2.81 -1.12,1.96 -2.53,7 -1.4,5.06 -2.24,1.41 -2.24,1.41 0,0 -7.29,-0.84 -9.54,0.56 -2.24,1.4 -3.92,1.41 -7.57,0 -3.64,-1.4 -2.51,-1.68 -4.2,-2.52 -1.68,-0.84 -2.5,0.27 -3.38,0 -0.82,-0.28 -3.07,0 -6.14,0 -3.1,0 -4.21,-2.26 -5.9,-2.81 -1.68,-0.55 -7.31,-3.64 -7.84,-4.49 -0.57,-0.83 -0.3,-2.23 -4.22,-6.73 -3.93,-4.47 0,-7.29 0,-8.12 0,-0.86 2.8,-9.83 5.04,-14.03 0.96,-1.78 1.11,-2.6 0.94,-2.96 3.14,0.4 13.12,1.74 13.37,2.68 0.29,1.12 4.47,3.93 5.55,6.45 1.06,2.52 6.5,0 6.5,0 l -2.23,-2.8 c 0,0 0,-7.29 -0.85,-10.09 -0.84,-2.81 -2.52,-2.81 -3.34,-4.21 -0.88,-1.4 7.82,-4.77 8.67,-3.93 h 4.76 l 2.41,-3.92 0.11,-8.69 v -3.05 c 0,0 7.86,-7.61 9.54,-7.89 1.68,-0.28 1.41,0.56 1.41,0.56 0,0 5.61,1.41 6.73,1.69 1.11,0.27 6.44,-4.21 6.44,-4.21 0,0 1.97,0.56 2.82,2.52 0.83,1.96 3.92,1.41 5.6,3.09 1.68,1.68 1.39,-0.29 1.39,-0.29 0,0 4.79,-4.76 6.17,-3.36 1.41,1.4 1.41,4.49 1.41,4.49 0,0 3.08,3.64 6.74,3.4 3.63,-0.25 2.23,-3.11 2.23,-3.11 l 13.45,-1.13 8.99,-4.21 3.37,-2.8 c 0,0 10.35,-3.65 11.49,-4.49 1.11,-0.84 4.47,-6.17 4.47,-6.17 0,0 16.55,-5.05 19.38,-7.01 2.78,-1.96 1.1,-6.17 1.1,-8.41 0,-2.25 -0.27,-2.81 -0.85,-3.65 l -3.93,-5.88 -0.56,-3.09 c 0,-0.84 4.49,-3.92 7.31,-4.21 2.8,-0.27 6.73,1.68 6.73,1.68 l 7.29,2.81 6.45,-3.08 16.26,-5.05 7.56,-1.97 c 0,0 9.55,-10.93 9.28,-12.05 -0.3,-1.12 0,-5.33 0,-5.33 0,0 -2.27,-12.05 -3.66,-13.18 -1.4,-1.12 -2.8,-7.85 -6.74,-14.58 -3.92,-6.73 -1.68,-5.05 -3.64,-8.14 -1.97,-3.07 0,-4.76 0,-5.59 0,-0.85 -1.12,-3.94 -3.09,-5.9 -1.98,-1.97 -2.8,-4.21 -4.2,-5.6 -1.41,-1.41 -3.65,-2.81 -4.47,-3.09 -0.86,-0.29 -1.98,-0.85 -7.03,-1.96 -5.05,-1.12 -1.97,-1.4 -4.75,-4.22 -2.81,-2.79 -3.1,-2.51 -4.5,-3.36 -1.4,-0.83 -1.96,-1.68 -3.65,-2.23 -1.68,-0.57 -1.97,-1.41 -2.51,-5.06 -0.57,-3.64 -2.53,-8.97 -3.09,-9.81 -0.56,-0.85 -2.24,-3.93 -3.65,-5.6 -1.41,-1.69 -4.77,-7.02 -6.17,-7.57 -1.41,-0.57 -3.07,0.27 -3.07,0.27 0,0 -5.06,-3.65 -6.74,-4.77 -1.69,-1.11 -0.27,-1.68 1.39,-3.92 1.69,-2.25 0,-6.45 0,-7.29 l -2.79,-4.48 c -0.85,-0.85 -2.53,-1.69 -4.48,-2.54 -1.97,-0.83 0,-3.63 0,-3.63 0,0 -2.81,-6.18 -4.79,-9.26 -1.95,-3.09 0,-6.17 0,-6.17 l 2.82,-5.6 c 0,0 1.97,-7.02 1.97,-8.42 0,-1.4 -1.97,-6.73 -2.81,-7.85 -0.84,-1.12 -1.41,-3.93 -1.41,-3.93 0,0 -0.57,-1.96 -10.92,-1.96 -10.39,0 -1.97,0.85 -4.78,6.73 -2.79,5.89 -2.24,7.3 -2.24,10.66 0,3.36 -1.68,2.25 -8.43,9.25 -6.72,7 -3.06,2.52 -5.19,7 -2.11,4.5 -0.12,11.78 -0.12,14.87 0,3.08 0.27,3.65 0,7.56 -0.29,3.93 -0.86,7.58 -1.46,11.78 -0.64,4.21 -1.36,4.49 -1.61,7.01 -0.3,2.53 0,11.78 1.1,14.03 1.11,2.23 0,7.02 0,7.02 v 15.97 c 0,0 -1.1,1.96 -3.36,9.26 -2.25,7.29 -3.64,7.01 -3.64,7.01 0,0 0,0 -5.61,5.88 -5.6,5.9 0,0 -3.09,1.69 -3.07,1.69 -2.23,0.85 -4.21,2.24 -1.96,1.4 0,0 -1.11,1.68 -1.12,1.68 -3.65,3.08 -4.77,5.89 -1.13,2.8 -4.48,6.18 -4.48,6.18 0,0 -1.68,1.68 -2.54,3.07 -0.82,1.4 -3.07,6.18 -4.19,8.14 -1.13,1.97 -2.53,7.01 -2.53,7.01 l -4.49,5.89 c 0,0 2.24,8.41 1.12,9.82 -1.12,1.4 -1.12,1.96 -1.12,1.96 v 7.29 l 5.04,6.16 3.93,7.57 c 0,0 5.33,9.81 5.89,11.78 0.57,1.96 0,3.36 -1.11,6.17 -1.13,2.8 -6.73,0.28 -6.73,0.28 l -11.23,3.46 -9.25,6.64 c 0,0 -2.5,1.96 -4.21,3.08 -1.68,1.12 -8.12,6.45 -13.45,9.81 -5.32,3.36 -3.08,2.8 -4.49,6.73 -1.41,3.93 -1.68,-0.27 -2.25,-1.12 -0.55,-0.85 -1.95,0 -15.13,3.92 -13.19,3.93 -4.77,2.25 -4.77,2.25 0,0 -4.22,1.68 -10.1,5.89 -5.89,4.2 -5.04,2.8 -9.23,4.77 -4.22,1.95 0.56,8.4 0.56,8.4 0,0 -8.71,10.94 -9.55,12.34 -0.74,1.23 -2.75,4.39 -4.37,7.6 -5.56,-21.05 -8.52,-43.13 -8.52,-65.92 0,-142.31 115.37,-257.7 257.7,-257.7 77.42,0 146.86,34.16 194.1,88.22 -0.94,0.67 -2.01,2.19 -3.65,5.16"
         style="fill:#ffffff;fill-opacity:1;fill-rule:nonzero;stroke:none"
         id="path136" /><path
         d="m 2170.51,3807.73 c -138.84,0 -251.78,-113.19 -251.78,-252.33 0,-139.14 112.94,-252.35 251.78,-252.35 138.83,0 251.78,113.21 251.78,252.35 0,139.14 -112.95,252.33 -251.78,252.33 z m 0,-515.28 c -144.69,0 -262.39,117.96 -262.39,262.95 0,144.99 117.7,262.94 262.39,262.94 144.69,0 262.38,-117.95 262.38,-262.94 0,-144.99 -117.69,-262.95 -262.38,-262.95"
         style="fill:#ffffff;fill-opacity:1;fill-rule:nonzero;stroke:none"
         id="path138" /><path
         d="M 890.527,1978.91 H 497.754 v 263.07 h 392.773 z m -421.035,285.11 v -307.14 h 449.297 v 307.14 H 469.492"
         style="fill:#ffffff;fill-opacity:1;fill-rule:nonzero;stroke:none"
         id="path140" /><path
         d="m 688.496,2076.03 -210.144,157.38 17.07,22.79 193.308,-144.78 206.133,150.2 23.606,-18.04 -229.973,-167.55"
         style="fill:#ffffff;fill-opacity:1;fill-rule:nonzero;stroke:none"
         id="path142" /></g></g></svg>
